<svg width="130" height="130" viewBox="0 0 130 130" fill="none" xmlns="http://www.w3.org/2000/svg">
<circle cx="65" cy="65" r="65" fill="#59ccf9"/>
<circle cx="64.9996" cy="64.9998" r="33.6207" fill="white"/>
<path fill-rule="evenodd" clip-rule="evenodd" d="M67.6444 54.916L61.3035 58.6033L57.6078 60.7348V66.525V69.2639V75.736L58.4996 76.2503L60.6301 77.4799V74.0885V71.0079V62.4795L62.8147 61.2188L64.9992 59.9589L70.652 56.6525L73.5827 54.9519L64.9992 49.9998L58.4988 53.7501L52 57.5004V72.5008L54.9389 74.1965V59.1961L59.9682 56.2936L64.9992 53.3911L67.6452 54.9168L67.6444 54.916ZM75.0603 61.0365V70.8035L70.0293 73.7059L66.4163 75.7908V72.7215V66.023L69.3682 64.3199L71.4219 63.1352L72.3906 62.576L75.0603 61.0365ZM71.0144 59.9409L67.9921 61.6848L63.4446 64.3085V67.7391V69.1437V79.1029L65 79.9998L66.4171 79.1822L71.5004 76.2503L78 72.5V64.9993V57.4987L76.6246 56.7057L74.6766 57.8299L73.6849 58.4014L71.0152 59.9417L71.0144 59.9409Z" fill="#102B32"/>
<path d="M70.0647 18.4915C69.3872 18.4175 68.7907 18.2547 68.2751 18.0031C67.7684 17.7524 67.3509 17.4182 67.0228 17.0005C66.6946 16.5829 66.4641 16.0871 66.3312 15.5131C66.1983 14.9391 66.1708 14.2967 66.2488 13.586C66.3297 12.8488 66.4978 12.21 66.753 11.6696C67.018 11.1213 67.3569 10.6698 67.7698 10.3153C68.1836 9.95197 68.6568 9.69725 69.1893 9.55112C69.7228 9.39622 70.3063 9.35334 70.9398 9.42249C71.4325 9.47628 71.8785 9.59155 72.2776 9.76832C72.6767 9.94508 73.0123 10.1726 73.2845 10.451C73.5577 10.7206 73.7586 11.04 73.8873 11.4093C74.0169 11.7697 74.0581 12.165 74.0109 12.595L72.2064 12.8509C72.2478 12.4736 72.2028 12.1534 72.0714 11.8904C71.9409 11.6186 71.7549 11.4074 71.5132 11.2567C71.2725 11.0972 71.0025 11.0012 70.7033 10.9685C70.4394 10.9397 70.174 10.964 69.9073 11.0415C69.6494 11.1199 69.4018 11.266 69.1646 11.4799C68.9372 11.686 68.7412 11.9709 68.5766 12.3348C68.4218 12.6909 68.3145 13.141 68.2548 13.685C68.1778 14.387 68.2164 14.9685 68.3706 15.4293C68.5248 15.8902 68.7664 16.2451 69.0952 16.4941C69.4328 16.7441 69.826 16.8936 70.2748 16.9426C70.7499 16.9944 71.1301 16.9382 71.4152 16.774C71.7102 16.6019 71.9322 16.3642 72.0812 16.0608C72.2391 15.7583 72.3416 15.4321 72.389 15.082L74.0363 15.5282C73.9764 15.9924 73.8579 16.4234 73.6807 16.8215C73.5132 17.2117 73.2674 17.5445 72.9433 17.8199C72.6281 18.0963 72.232 18.2973 71.7552 18.4229C71.2794 18.5397 70.7159 18.5625 70.0647 18.4915Z" fill="#102B32"/>
<path d="M79.1877 20.4224C78.532 20.2068 77.9949 19.8861 77.5764 19.4603C77.1608 19.0262 76.8946 18.5064 76.7778 17.9011C76.6639 17.2873 76.7344 16.5948 76.9894 15.8235C77.2444 15.0522 77.5994 14.4578 78.0543 14.0404C78.5176 13.6258 79.043 13.3756 79.6305 13.29C80.2209 13.196 80.8397 13.2554 81.4869 13.4682C82.151 13.6866 82.6923 14.0087 83.1108 14.4344C83.5292 14.8602 83.7954 15.38 83.9094 15.9937C84.0345 16.6019 83.9696 17.2916 83.7146 18.0629C83.454 18.8509 83.0921 19.4523 82.6288 19.8669C82.1655 20.2816 81.6358 20.5303 81.0399 20.6132C80.4439 20.6961 79.8265 20.6325 79.1877 20.4224ZM79.6956 19.0976C80.0234 19.2054 80.3216 19.2198 80.59 19.1407C80.8585 19.0617 81.0973 18.8893 81.3063 18.6234C81.5266 18.3519 81.7088 17.9982 81.8529 17.5622C82.0054 17.1011 82.0712 16.6906 82.0505 16.3305C82.0409 15.9649 81.9461 15.6595 81.7662 15.4144C81.5974 15.1637 81.3365 14.9803 80.9834 14.8642C80.664 14.7592 80.3658 14.7448 80.089 14.8211C79.8205 14.9001 79.5775 15.0712 79.3601 15.3343C79.1426 15.5974 78.9604 15.9511 78.8135 16.3954C78.5779 17.108 78.5378 17.6944 78.6932 18.1545C78.8571 18.6173 79.1912 18.9317 79.6956 19.0976Z" fill="#102B32"/>
<path d="M85.1407 22.422L87.2167 18.7858L88.5897 16.3808L89.9512 17.1539L88.8688 19.023L89.088 19.1475C89.4431 18.7396 89.7945 18.4363 90.1423 18.2376C90.4977 18.0432 90.8593 17.954 91.2271 17.9698C91.5993 17.978 91.9777 18.0913 92.3623 18.3097C93.0623 18.7072 93.4529 19.254 93.5341 19.9503C93.6198 20.6389 93.3669 21.501 92.7757 22.5366L90.956 25.724L89.2945 24.7806L91.0091 21.7773C91.3682 21.1482 91.5365 20.6394 91.5139 20.2507C91.4957 19.8544 91.3059 19.5535 90.9444 19.3483C90.6367 19.1735 90.3242 19.1231 90.0071 19.197C89.702 19.2675 89.4036 19.4333 89.112 19.6944C88.8203 19.9554 88.5606 20.2854 88.3329 20.6843L86.8022 23.3654L85.1407 22.422Z" fill="#102B32"/>
<path d="M94.9499 28.9968C94.3449 28.5075 94.0262 27.9884 93.9939 27.4395C93.974 26.8893 94.2456 26.2679 94.8087 25.5754L96.732 23.2098L95.9585 22.5843L96.9177 21.4677L97.4127 21.868C97.6452 22.0446 97.8443 22.1431 98.01 22.1635C98.1813 22.177 98.3526 22.0996 98.5237 21.9311L99.2328 21.3112L100.079 21.9951L99.1001 23.1985L100.461 24.2993L99.4831 25.5027L98.1218 24.4018L96.2904 26.6543C96.0897 26.9011 96.0004 27.1301 96.0225 27.3412C96.0502 27.5454 96.1844 27.7448 96.425 27.9394C96.5488 28.0395 96.6802 28.123 96.8194 28.1901C96.9711 28.2559 97.1173 28.3003 97.2582 28.3233L96.146 29.6912C95.8771 29.5874 95.6449 29.4735 95.4494 29.3496C95.2539 29.2256 95.0874 29.108 94.9499 28.9968Z" fill="#102B32"/>
<path d="M98.8429 32.5958C98.5826 32.3069 98.4079 32.0006 98.3187 31.6771C98.2295 31.3535 98.2344 31.0287 98.3334 30.7027C98.4383 30.3832 98.652 30.079 98.9747 29.7899C99.2644 29.5303 99.552 29.3675 99.8376 29.3015C100.129 29.242 100.429 29.2643 100.737 29.3682C101.05 29.4787 101.383 29.6496 101.734 29.8809C102.085 30.1121 102.461 30.3979 102.863 30.7381C103.098 30.9194 103.294 31.0643 103.451 31.1727C103.608 31.2811 103.749 31.3386 103.874 31.3453C103.999 31.352 104.124 31.2992 104.249 31.1872C104.44 31.0161 104.542 30.8059 104.556 30.5565C104.569 30.3072 104.446 30.0381 104.186 29.7491C104.02 29.5653 103.83 29.4208 103.616 29.3156C103.409 29.217 103.182 29.1705 102.938 29.1762C102.705 29.1826 102.469 29.2575 102.23 29.401L101.45 27.8216C101.798 27.6402 102.139 27.5302 102.473 27.4918C102.808 27.4534 103.135 27.4803 103.456 27.5724C103.79 27.6652 104.111 27.8167 104.419 28.027C104.727 28.2372 105.023 28.4999 105.307 28.8151C105.757 29.3142 106.044 29.7983 106.17 30.2676C106.295 30.7368 106.254 31.2004 106.048 31.6582C105.854 32.1167 105.491 32.5849 104.957 33.0627L104.068 33.8592C103.85 34.0663 103.623 34.2823 103.385 34.5072C103.154 34.7261 102.926 34.9484 102.7 35.1739C102.481 35.406 102.262 35.6381 102.043 35.8701L100.916 34.6192C101.076 34.4402 101.249 34.2432 101.436 34.0281C101.636 33.8137 101.845 33.603 102.062 33.3958L101.912 33.2284C101.579 33.3606 101.227 33.4387 100.855 33.4627C100.491 33.4807 100.134 33.421 99.7838 33.2836C99.4405 33.1403 99.1269 32.911 98.8429 32.5958ZM100.421 32.2675C100.534 32.3922 100.666 32.4993 100.818 32.5887C100.982 32.6787 101.16 32.7445 101.352 32.786C101.55 32.834 101.76 32.8483 101.98 32.8288C102.206 32.8159 102.428 32.7653 102.646 32.6769L103.409 31.9581L103.573 32.22C103.387 32.1851 103.197 32.1124 103.002 32.002C102.82 31.8923 102.639 31.7638 102.459 31.6167C102.285 31.4761 102.107 31.3385 101.926 31.2038C101.745 31.0692 101.569 30.9598 101.399 30.8756C101.228 30.7915 101.06 30.7513 100.897 30.7551C100.741 30.753 100.58 30.8257 100.415 30.9732C100.218 31.1502 100.119 31.3574 100.119 31.595C100.131 31.8332 100.232 32.0573 100.421 32.2675Z" fill="#102B32"/>
<path d="M105.145 40.7753C104.831 40.2628 104.632 39.7685 104.548 39.2922C104.465 38.8159 104.48 38.3669 104.596 37.9452C104.715 37.531 104.921 37.1472 105.213 36.7939C105.513 36.4359 105.885 36.1213 106.331 35.8501C106.8 35.5651 107.266 35.3694 107.73 35.2631C108.201 35.1521 108.659 35.1375 109.102 35.219C109.546 35.3006 109.963 35.4815 110.352 35.7617C110.741 36.042 111.083 36.4233 111.378 36.9056C111.682 37.403 111.86 37.8794 111.91 38.3347C111.965 38.7976 111.912 39.2279 111.751 39.6258C111.598 40.019 111.349 40.3668 111.005 40.669L109.628 39.4596C109.863 39.2853 110.032 39.0948 110.133 38.8881C110.247 38.6844 110.295 38.4744 110.277 38.258C110.259 38.0417 110.183 37.8242 110.049 37.6057C109.92 37.3947 109.765 37.2353 109.585 37.1276C109.406 37.0199 109.198 36.9601 108.963 36.9482C108.739 36.9392 108.496 36.9736 108.232 37.0512C107.973 37.1363 107.697 37.2686 107.402 37.4478C106.994 37.6961 106.678 37.9603 106.456 38.2405C106.241 38.5161 106.122 38.8053 106.1 39.1083C106.09 39.4142 106.184 39.7292 106.383 40.0532C106.562 40.3471 106.766 40.544 106.993 40.6438C107.224 40.7511 107.456 40.791 107.688 40.7636C107.932 40.7391 108.161 40.6723 108.374 40.5633L108.946 42.1851C108.633 42.3342 108.307 42.429 107.969 42.4693C107.638 42.505 107.306 42.4696 106.971 42.363C106.641 42.264 106.318 42.0831 106.002 41.8205C105.698 41.5608 105.412 41.2124 105.145 40.7753Z" fill="#102B32"/>
<path d="M108.741 47.8787C108.445 47.1601 108.415 46.5522 108.651 46.0549C108.898 45.5625 109.435 45.147 110.262 44.8084L113.087 43.6515L112.708 42.7329L114.087 42.2113L114.329 42.7993C114.448 43.0654 114.575 43.247 114.711 43.3441C114.855 43.4379 115.042 43.4518 115.274 43.3857L116.194 43.1807L116.607 44.1851L115.17 44.7735L115.836 46.3904L114.399 46.9789L113.733 45.362L111.044 46.4635C110.749 46.5842 110.56 46.7425 110.478 46.9383C110.405 47.1308 110.426 47.3699 110.544 47.6557C110.605 47.8027 110.68 47.9389 110.77 48.0643C110.871 48.1945 110.978 48.3034 111.091 48.3909L109.457 49.0598C109.271 48.8402 109.122 48.6293 109.01 48.427C108.898 48.2248 108.809 48.042 108.741 47.8787Z" fill="#102B32"/>
<path d="M111.711 59.6269C111.651 59.0917 111.655 58.6116 111.723 58.1865C111.783 57.7624 111.897 57.3856 112.065 57.056C112.241 56.7255 112.464 56.4432 112.731 56.2091C113.008 55.9741 113.325 55.7833 113.683 55.637C114.041 55.4994 114.441 55.4061 114.88 55.3572L120.172 54.7686L120.384 56.6636L115.158 57.2448C114.71 57.2947 114.344 57.4065 114.06 57.5802C113.787 57.7616 113.596 58.0049 113.487 58.3101C113.379 58.6152 113.349 58.9872 113.398 59.4258C113.448 59.8732 113.56 60.2295 113.732 60.4946C113.905 60.7684 114.144 60.9594 114.45 61.0675C114.766 61.1834 115.148 61.2163 115.597 61.1664L120.822 60.5852L121.034 62.4802L115.743 63.0688C114.599 63.196 113.675 62.9746 112.97 62.4046C112.274 61.8337 111.854 60.9077 111.711 59.6269Z" fill="#102B32"/>
<path d="M111.873 69.4249C111.917 68.9591 112.001 68.5413 112.125 68.1717C112.248 67.802 112.407 67.4844 112.601 67.2188C112.803 66.9628 113.031 66.7625 113.284 66.6178C113.546 66.4827 113.833 66.4076 114.146 66.3926L114.55 67.9067C114.353 67.9237 114.159 67.9986 113.969 68.1315C113.786 68.274 113.63 68.4722 113.499 68.726C113.378 68.9806 113.299 69.2968 113.263 69.6747C113.226 70.0702 113.254 70.3832 113.348 70.6137C113.451 70.8449 113.613 70.9709 113.833 70.9915C114 71.0072 114.138 70.9581 114.247 70.8441C114.355 70.7301 114.456 70.5578 114.549 70.3271C114.641 70.1052 114.733 69.8301 114.827 69.5019C114.938 69.1666 115.054 68.836 115.173 68.5103C115.302 68.1854 115.459 67.8854 115.645 67.6102C115.83 67.3438 116.058 67.1347 116.331 66.9828C116.603 66.831 116.937 66.7736 117.334 66.8107C117.765 66.8512 118.129 67.0005 118.425 67.2587C118.721 67.5169 118.936 67.874 119.071 68.3299C119.214 68.7955 119.256 69.3403 119.197 69.9643C119.144 70.5268 119.018 71.016 118.819 71.4318C118.628 71.8572 118.37 72.1921 118.044 72.4365C117.728 72.6817 117.358 72.8289 116.936 72.878L116.592 71.2897C116.816 71.2752 117.013 71.2051 117.185 71.0793C117.365 70.9631 117.505 70.7989 117.605 70.5866C117.705 70.3743 117.769 70.1188 117.797 69.8199C117.832 69.4508 117.798 69.155 117.694 68.9325C117.59 68.7188 117.436 68.6025 117.233 68.5835C117.066 68.5678 116.923 68.6209 116.805 68.7429C116.686 68.8736 116.58 69.0543 116.487 69.285C116.402 69.5253 116.309 69.8092 116.207 70.1365C116.103 70.4815 115.988 70.812 115.86 71.1282C115.741 71.4539 115.593 71.746 115.418 72.0044C115.242 72.2628 115.024 72.4596 114.762 72.5947C114.5 72.7386 114.17 72.7919 113.774 72.7548C113.315 72.7119 112.935 72.5521 112.632 72.2755C112.329 71.9989 112.111 71.6194 111.979 71.1371C111.846 70.6548 111.811 70.0841 111.873 69.4249Z" fill="#102B32"/>
<path d="M113.718 81.8832L115.144 80.9037L115.871 82.6426L115.967 82.6491L116.827 80.9733L118.242 82.0165L116.776 83.2632L116.803 83.3434L118.678 83.6228L118.071 85.3046L116.448 84.3276L116.371 84.3844L116.717 86.2398L114.938 86.1637L115.368 84.3478L115.273 84.2995L113.618 85.1688L113.133 83.5028L115.019 83.3217L115.055 83.222L113.718 81.8832Z" fill="#102B32"/>
<path d="M103.315 92.6061C103.71 92.052 104.143 91.6117 104.614 91.2852C105.081 90.9659 105.577 90.7651 106.102 90.6827C106.628 90.6003 107.174 90.641 107.742 90.8047C108.309 90.9685 108.885 91.2575 109.469 91.6716C110.076 92.1011 110.553 92.5585 110.902 93.0441C111.253 93.5419 111.484 94.057 111.593 94.5893C111.71 95.1267 111.702 95.6629 111.571 96.1979C111.447 96.738 111.2 97.2671 110.831 97.7853C110.544 98.1882 110.226 98.5205 109.876 98.782C109.527 99.0436 109.165 99.2251 108.788 99.3266C108.419 99.4333 108.041 99.4527 107.655 99.3849C107.277 99.3223 106.91 99.1657 106.557 98.9151L107.212 97.2187C107.522 97.4386 107.824 97.5553 108.118 97.5689C108.42 97.5877 108.696 97.5285 108.945 97.3914C109.202 97.2594 109.418 97.071 109.592 96.8263C109.746 96.6105 109.854 96.3675 109.916 96.0974C109.973 95.8346 109.965 95.5478 109.894 95.237C109.824 94.9386 109.67 94.6291 109.431 94.3085C109.195 94.0002 108.853 93.6876 108.406 93.3706C107.828 92.9616 107.3 92.712 106.822 92.6219C106.343 92.5318 105.915 92.5693 105.536 92.7344C105.153 92.9068 104.831 93.1764 104.569 93.5435C104.292 93.9321 104.156 94.2905 104.161 94.6189C104.168 94.9596 104.268 95.2687 104.461 95.5463C104.649 95.8311 104.885 96.0794 105.169 96.2911L103.976 97.5086C103.598 97.2305 103.279 96.9173 103.016 96.569C102.756 96.2331 102.584 95.8569 102.501 95.4405C102.413 95.0313 102.429 94.5884 102.552 94.112C102.681 93.6406 102.936 93.1387 103.315 92.6061Z" fill="#102B32"/>
<path d="M97.1796 99.6227C97.6869 99.1557 98.2287 98.8431 98.8051 98.6849C99.3875 98.5332 99.9723 98.5534 100.56 98.7455C101.153 98.9441 101.726 99.3418 102.278 99.9386C102.831 100.535 103.179 101.133 103.324 101.733C103.463 102.338 103.427 102.917 103.217 103.471C103.013 104.032 102.661 104.542 102.16 105.003C101.646 105.476 101.101 105.792 100.524 105.95C99.9481 106.108 99.3632 106.088 98.7698 105.889C98.1759 105.703 97.6028 105.312 97.0505 104.715C96.4861 104.105 96.1346 103.498 95.996 102.893C95.8575 102.287 95.8965 101.705 96.1131 101.145C96.3298 100.585 96.6852 100.078 97.1796 99.6227ZM98.0944 100.709C97.8407 100.942 97.6834 101.195 97.6223 101.468C97.5613 101.74 97.5966 102.032 97.7282 102.343C97.8592 102.667 98.0809 102.998 98.3931 103.335C98.7233 103.692 99.0512 103.948 99.377 104.105C99.7022 104.274 100.016 104.34 100.318 104.302C100.62 104.277 100.907 104.138 101.18 103.887C101.428 103.659 101.585 103.406 101.652 103.128C101.713 102.855 101.681 102.56 101.556 102.243C101.431 101.926 101.21 101.595 100.891 101.251C100.381 100.7 99.8865 100.38 99.4077 100.293C98.9224 100.211 98.4846 100.349 98.0944 100.709Z" fill="#102B32"/>
<path d="M92.5373 103.846L94.7231 107.418L96.1688 109.78L94.8315 110.594L93.7153 108.745L93.5 108.876C93.686 109.383 93.782 109.837 93.7881 110.236C93.7866 110.641 93.6899 111 93.498 111.313C93.3107 111.634 93.0281 111.909 92.6503 112.139C91.9628 112.558 91.2939 112.634 90.6437 112.368C89.998 112.109 89.364 111.471 88.7414 110.454L86.8254 107.323L88.4574 106.33L90.2627 109.28C90.6409 109.898 91.0059 110.291 91.3579 110.459C91.7144 110.635 92.0703 110.615 92.4254 110.399C92.7276 110.215 92.923 109.967 93.0118 109.654C93.0975 109.354 93.0965 109.013 93.0086 108.632C92.9207 108.251 92.7568 107.865 92.517 107.473L90.9053 104.84L92.5373 103.846Z" fill="#102B32"/>
<path d="M82.0097 109.228C82.7322 108.937 83.3419 108.911 83.8389 109.149C84.331 109.399 84.7442 109.937 85.0784 110.764L86.22 113.589L87.1436 113.217L87.6576 114.595L87.0665 114.833C86.7989 114.95 86.6159 115.076 86.5176 115.211C86.4227 115.353 86.4076 115.54 86.4723 115.771L86.6719 116.69L85.6621 117.096L85.0814 115.659L83.4559 116.313L82.8752 114.876L84.5007 114.222L83.4137 111.533C83.2946 111.238 83.1371 111.049 82.9413 110.966C82.7488 110.891 82.5089 110.911 82.2215 111.027C82.0738 111.086 81.9367 111.161 81.8104 111.249C81.6791 111.35 81.5693 111.456 81.4808 111.567L80.8207 109.934C81.0421 109.75 81.2546 109.603 81.4581 109.492C81.6616 109.382 81.8455 109.294 82.0097 109.228Z" fill="#102B32"/>
<path d="M76.9546 110.874C77.3344 110.788 77.6877 110.784 78.0145 110.864C78.3413 110.944 78.6234 111.107 78.8608 111.352C79.0895 111.598 79.2519 111.933 79.3479 112.355C79.4342 112.733 79.4367 113.063 79.3555 113.344C79.2656 113.627 79.1002 113.877 78.8593 114.095C78.6097 114.314 78.2982 114.521 77.9247 114.714C77.5511 114.907 77.1176 115.096 76.624 115.28C76.3509 115.396 76.1286 115.496 75.9572 115.581C75.7857 115.665 75.6666 115.76 75.5999 115.865C75.5332 115.971 75.5185 116.105 75.5557 116.269C75.6126 116.519 75.747 116.71 75.9588 116.843C76.1707 116.976 76.4665 117 76.8463 116.914C77.088 116.859 77.3069 116.764 77.5031 116.629C77.6906 116.496 77.8415 116.321 77.9557 116.105C78.0632 115.9 78.1125 115.658 78.1035 115.379L79.8666 115.469C79.856 115.861 79.7861 116.211 79.657 116.521C79.5279 116.831 79.3449 117.103 79.1079 117.338C78.8642 117.583 78.5752 117.789 78.2409 117.955C77.9066 118.122 77.5323 118.252 77.118 118.346C76.462 118.494 75.898 118.509 75.426 118.389C74.9541 118.27 74.5678 118.009 74.2674 117.606C73.9602 117.214 73.7272 116.67 73.5684 115.972L73.3037 114.81C73.2284 114.52 73.1502 114.216 73.069 113.899C72.9898 113.591 72.9062 113.284 72.8184 112.978C72.7219 112.674 72.6254 112.37 72.5289 112.066L74.1733 111.694C74.2521 111.92 74.3401 112.167 74.4374 112.435C74.528 112.713 74.611 112.998 74.6863 113.289L74.9064 113.239C74.9527 112.884 75.0557 112.539 75.2155 112.205C75.3771 111.878 75.6033 111.596 75.8941 111.358C76.1868 111.129 76.5403 110.967 76.9546 110.874ZM76.4737 112.408C76.3097 112.445 76.1515 112.508 75.9993 112.597C75.8404 112.697 75.696 112.82 75.5661 112.967C75.4276 113.116 75.3132 113.291 75.223 113.493C75.1241 113.696 75.0603 113.914 75.0316 114.147L75.2899 115.161L74.9803 115.177C75.1016 115.032 75.2579 114.902 75.4494 114.786C75.6342 114.681 75.8349 114.585 76.0515 114.5C76.2594 114.417 76.4664 114.329 76.6724 114.237C76.8784 114.145 77.0598 114.045 77.2168 113.937C77.3737 113.829 77.4903 113.703 77.5664 113.559C77.6445 113.424 77.659 113.249 77.61 113.034C77.5512 112.775 77.4178 112.588 77.2099 112.472C76.9953 112.367 76.7499 112.346 76.4737 112.408Z" fill="#102B32"/>
<path d="M66.7326 112.376C67.3341 112.352 67.8638 112.42 68.3218 112.579C68.7798 112.738 69.1653 112.97 69.4785 113.276C69.7828 113.582 70.0186 113.948 70.1858 114.375C70.3534 114.81 70.4474 115.288 70.4678 115.808C70.4892 116.355 70.4335 116.856 70.3007 117.312C70.1683 117.777 69.9583 118.182 69.6707 118.529C69.3831 118.876 69.0218 119.151 68.5868 119.353C68.1518 119.556 67.6512 119.668 67.0852 119.69C66.5014 119.713 65.9979 119.635 65.5746 119.457C65.1425 119.28 64.7914 119.024 64.5214 118.69C64.2518 118.365 64.0684 117.979 63.9712 117.532L65.7013 116.921C65.7392 117.211 65.8239 117.451 65.9553 117.64C66.0782 117.839 66.2389 117.982 66.4372 118.072C66.6356 118.161 66.8631 118.201 67.1196 118.191C67.3672 118.182 67.582 118.125 67.764 118.02C67.9459 117.916 68.0994 117.764 68.2245 117.565C68.3411 117.375 68.4296 117.146 68.49 116.879C68.5415 116.612 68.5606 116.306 68.5471 115.962C68.5285 115.486 68.4507 115.083 68.3138 114.752C68.1772 114.431 67.9816 114.187 67.7271 114.02C67.464 113.862 67.1423 113.791 66.762 113.806C66.417 113.819 66.1456 113.9 65.9477 114.049C65.7409 114.199 65.5931 114.381 65.5041 114.597C65.4065 114.821 65.3536 115.053 65.3452 115.292L63.6463 115C63.6682 114.655 63.7439 114.325 63.8734 114.011C64.0031 113.705 64.1962 113.433 64.4526 113.193C64.7001 112.954 65.0159 112.76 65.3999 112.613C65.7754 112.475 66.2196 112.396 66.7326 112.376Z" fill="#102B32"/>
<path d="M58.6938 112.051C59.4674 112.142 60.0147 112.412 60.3359 112.859C60.6473 113.313 60.7503 113.983 60.6449 114.869L60.2851 117.893L61.2739 118.01L61.0607 119.465L60.4278 119.39C60.1367 119.364 59.9156 119.387 59.7646 119.458C59.6124 119.538 59.5091 119.694 59.4546 119.928L59.1869 120.83L58.1057 120.702L58.2888 119.163L56.5484 118.957L56.7314 117.419L58.4718 117.625L58.8145 114.745C58.852 114.43 58.8049 114.189 58.6732 114.022C58.5405 113.864 58.3203 113.767 58.0127 113.73C57.8544 113.712 57.6985 113.711 57.5449 113.728C57.3815 113.753 57.2341 113.794 57.1027 113.849L57.3108 112.1C57.5937 112.045 57.851 112.018 58.0827 112.018C58.3143 112.019 58.518 112.03 58.6938 112.051Z" fill="#102B32"/>
<path d="M46.9576 108.931C47.4556 109.139 47.8743 109.376 48.2135 109.643C48.5562 109.901 48.8311 110.183 49.0382 110.489C49.2419 110.804 49.3812 111.135 49.4561 111.482C49.5276 111.838 49.5405 112.207 49.4948 112.59C49.441 112.969 49.3286 113.362 49.1576 113.769L47.1006 118.667L45.3371 117.93L47.3685 113.094C47.5429 112.679 47.6229 112.305 47.6086 111.974C47.5826 111.647 47.4623 111.362 47.2476 111.12C47.0329 110.877 46.7215 110.67 46.3132 110.5C45.8969 110.326 45.5307 110.249 45.2147 110.27C44.8906 110.288 44.6068 110.404 44.3633 110.618C44.1082 110.837 43.8935 111.154 43.7191 111.569L41.6877 116.406L39.9242 115.669L41.9813 110.772C42.4258 109.713 43.0692 109.015 43.9114 108.678C44.7502 108.349 45.7656 108.433 46.9576 108.931Z" fill="#102B32"/>
<path d="M38.3716 104.346C38.7582 104.611 39.0832 104.887 39.3467 105.175C39.6102 105.463 39.8111 105.756 39.9492 106.054C40.075 106.355 40.1396 106.65 40.1428 106.942C40.1337 107.236 40.0596 107.522 39.9206 107.802L38.3977 107.417C38.4788 107.237 38.5075 107.031 38.4838 106.801C38.4478 106.573 38.3505 106.34 38.1918 106.102C38.0281 105.872 37.7895 105.65 37.4758 105.435C37.1476 105.21 36.8597 105.082 36.6122 105.052C36.3596 105.028 36.1706 105.108 36.0453 105.29C35.95 105.428 35.9258 105.572 35.9728 105.722C36.0198 105.872 36.1217 106.044 36.2785 106.237C36.428 106.425 36.6238 106.64 36.8659 106.881C37.1053 107.141 37.3384 107.403 37.5655 107.666C37.7875 107.936 37.9737 108.219 38.1242 108.515C38.2674 108.806 38.3392 109.107 38.3396 109.418C38.3401 109.728 38.2275 110.048 38.0019 110.375C37.7562 110.731 37.4482 110.976 37.0781 111.107C36.7079 111.239 36.2903 111.253 35.8253 111.148C35.348 111.046 34.8504 110.817 34.3325 110.462C33.8657 110.142 33.4987 109.794 33.2315 109.418C32.9521 109.045 32.7845 108.657 32.7289 108.254C32.6682 107.859 32.7193 107.466 32.882 107.074L34.4404 107.548C34.3443 107.75 34.3094 107.956 34.3358 108.167C34.35 108.38 34.4257 108.582 34.5629 108.772C34.7001 108.963 34.8927 109.143 35.1407 109.313C35.4471 109.523 35.7229 109.637 35.9682 109.656C36.2061 109.669 36.3828 109.592 36.4981 109.424C36.5934 109.286 36.6164 109.136 36.5672 108.974C36.5106 108.806 36.4039 108.626 36.2471 108.433C36.078 108.242 35.8749 108.022 35.6378 107.774C35.3862 107.516 35.153 107.254 34.9382 106.989C34.7112 106.726 34.5272 106.456 34.3864 106.177C34.2455 105.898 34.1796 105.612 34.1887 105.318C34.1905 105.02 34.3043 104.707 34.5299 104.379C34.7907 104.001 35.1159 103.747 35.5057 103.618C35.8955 103.489 36.3338 103.484 36.8207 103.604C37.3075 103.723 37.8245 103.971 38.3716 104.346Z" fill="#102B32"/>
<path d="M26.553 99.8876L26.7198 101.607L24.8426 101.397L24.7901 101.478L25.8425 103.04L24.241 103.768L23.8595 101.885L23.7758 101.87L22.6212 103.369L21.4413 102.023L23.0853 101.082L23.0729 100.988L21.2782 100.389L22.208 98.8747L23.5915 100.131L23.6802 100.071L23.7208 98.2063L25.4168 98.5918L24.6606 100.324L24.7305 100.404L26.553 99.8876Z" fill="#102B32"/>
<path d="M22.1856 85.6134C22.4805 86.2263 22.6569 86.8174 22.7149 87.3869C22.7691 87.9485 22.705 88.4785 22.5227 88.977C22.3403 89.4754 22.0399 89.9325 21.6214 90.3482C21.2029 90.7639 20.6704 91.1264 20.024 91.4357C19.3536 91.7565 18.7209 91.9515 18.1259 92.0208C17.5191 92.086 16.9558 92.0374 16.4358 91.8749C15.9079 91.7163 15.4411 91.4501 15.0355 91.0764C14.6219 90.7064 14.2772 90.2349 14.0015 89.6619C13.7871 89.2162 13.6497 88.7776 13.5895 88.3463C13.5292 87.915 13.5457 87.5105 13.639 87.133C13.7242 86.7593 13.8901 86.4204 14.1366 86.1165C14.375 85.8163 14.6898 85.5727 15.0809 85.3856L16.2518 86.7786C15.9086 86.9428 15.6598 87.15 15.5052 87.4002C15.3427 87.6542 15.2611 87.9233 15.2605 88.2076C15.2518 88.4957 15.3126 88.775 15.4428 89.0456C15.5576 89.2844 15.7185 89.4963 15.9253 89.6812C16.1283 89.8583 16.3834 89.9907 16.6908 90.0786C16.9864 90.1624 17.3325 90.1779 17.7293 90.1251C18.1143 90.0682 18.5541 89.9213 19.0489 89.6846C19.6874 89.3791 20.1621 89.0393 20.473 88.6653C20.784 88.2913 20.9586 87.8993 20.997 87.4893C21.0315 87.0714 20.9511 86.6594 20.7558 86.2535C20.5491 85.8238 20.3005 85.5315 20.01 85.3767C19.7078 85.2178 19.3881 85.1554 19.051 85.1894C18.7101 85.2155 18.3781 85.3009 18.0551 85.4457L17.5651 83.815C17.9919 83.6205 18.4215 83.4933 18.854 83.4332C19.2747 83.3689 19.6879 83.4013 20.0936 83.5303C20.4955 83.6513 20.8757 83.8806 21.2345 84.218C21.5852 84.5593 21.9023 85.0245 22.1856 85.6134Z" fill="#102B32"/>
<path d="M19.0103 76.8522C19.1725 77.5215 19.1826 78.1457 19.0407 78.7248C18.8901 79.306 18.5878 79.8057 18.1336 80.224C17.6709 80.6443 17.0438 80.9498 16.2522 81.1406C15.4606 81.3314 14.7671 81.3442 14.1716 81.179C13.574 81.0052 13.0837 80.6919 12.7008 80.2393C12.3093 79.7888 12.0335 79.2332 11.8734 78.5725C11.7091 77.8946 11.698 77.2661 11.8399 76.687C11.9819 76.1079 12.2842 75.6081 12.747 75.1878C13.199 74.761 13.8208 74.4522 14.6124 74.2614C15.4211 74.0665 16.1243 74.0559 16.7219 74.2297C17.3195 74.4035 17.8108 74.721 18.1958 75.1822C18.5807 75.6434 18.8522 76.2001 19.0103 76.8522ZM17.6138 77.1207C17.5327 76.7861 17.3877 76.5259 17.1787 76.3401C16.9698 76.1543 16.6969 76.043 16.3602 76.0061C16.0127 75.9627 15.6153 75.995 15.1679 76.1028C14.6947 76.2169 14.3102 76.3776 14.0144 76.5852C13.708 76.7862 13.4979 77.0275 13.384 77.3093C13.2595 77.5845 13.2409 77.9023 13.3282 78.2627C13.4072 78.5887 13.5523 78.8489 13.7633 79.0433C13.9722 79.229 14.2461 79.3447 14.5849 79.3901C14.9238 79.4356 15.3212 79.4034 15.7772 79.2935C16.5085 79.1172 17.0292 78.8418 17.3391 78.4674C17.647 78.0845 17.7385 77.6355 17.6138 77.1207Z" fill="#102B32"/>
<path d="M17.5748 70.757L13.3824 70.9212L10.6096 71.0298L10.5481 69.4686L12.7111 69.3971L12.7012 69.1457C12.1664 69.0606 11.7225 68.9234 11.3696 68.734C11.0163 68.5359 10.7492 68.2769 10.5683 67.9571C10.3785 67.6376 10.275 67.2574 10.2576 66.8164C10.226 66.0137 10.4851 65.394 11.0348 64.9572C11.5757 64.5208 12.4432 64.2792 13.6372 64.2325L17.3122 64.0885L17.3872 65.9938L13.9245 66.1294C13.1992 66.1578 12.6771 66.2843 12.3582 66.5088C12.0305 66.7337 11.8747 67.0534 11.8911 67.468C11.905 67.8208 12.0272 68.112 12.2577 68.3415C12.479 68.5625 12.7778 68.7275 13.1541 68.8364C13.5305 68.9454 13.9486 68.9908 14.4085 68.9728L17.4998 68.8517L17.5748 70.757Z" fill="#102B32"/>
<path d="M17.9878 58.8997C17.891 59.6705 17.6175 60.2146 17.1673 60.5321C16.7094 60.8396 16.0369 60.938 15.1498 60.8272L12.1197 60.4487L11.9959 61.4341L10.5385 61.2121L10.6177 60.5814C10.6452 60.2913 10.6239 60.0706 10.5537 59.9195C10.4746 59.7673 10.3182 59.6632 10.0844 59.6073L9.18197 59.3345L9.31727 58.2571L10.8587 58.4496L11.0765 56.7153L12.6179 56.9079L12.4001 58.6422L15.2853 59.0025C15.6015 59.042 15.8436 58.9967 16.0116 58.8664C16.1708 58.735 16.2697 58.5161 16.3082 58.2095C16.328 58.0518 16.3296 57.8964 16.3132 57.7431C16.2891 57.5799 16.2496 57.4326 16.1947 57.3012L17.9469 57.5201C18.0007 57.8026 18.0264 58.0594 18.0241 58.2904C18.0219 58.5214 18.0098 58.7245 17.9878 58.8997Z" fill="#102B32"/>
<path d="M18.9968 53.707C18.8878 54.0798 18.7189 54.3894 18.4902 54.6355C18.2615 54.8817 17.9822 55.0487 17.6522 55.1367C17.3247 55.2162 16.9528 55.1954 16.5364 55.0743C16.1625 54.9656 15.8721 54.8076 15.6653 54.6004C15.461 54.3847 15.322 54.119 15.2483 53.8033C15.1771 53.4792 15.1475 53.1074 15.1595 52.6879C15.1715 52.2684 15.2165 51.7988 15.2947 51.279C15.3255 50.9845 15.3456 50.7421 15.3552 50.5518C15.3647 50.3614 15.3394 50.2115 15.2792 50.1021C15.219 49.9926 15.1081 49.9144 14.9467 49.8675C14.7002 49.7958 14.4673 49.8201 14.2478 49.9402C14.0283 50.0602 13.864 50.3067 13.755 50.6796C13.6856 50.9169 13.6625 51.1538 13.6855 51.3904C13.711 51.6185 13.7907 51.8348 13.9246 52.0392C14.0524 52.2327 14.2407 52.3932 14.4892 52.5206L13.5547 54.0144C13.2165 53.8149 12.943 53.5836 12.7341 53.3206C12.5251 53.0576 12.3753 52.7658 12.2846 52.4452C12.1879 52.1136 12.1479 51.7617 12.1645 51.3896C12.1811 51.0174 12.2488 50.6279 12.3677 50.2211C12.556 49.577 12.8171 49.0782 13.1509 48.7247C13.4847 48.3712 13.9011 48.1613 14.3999 48.0948C14.8928 48.0174 15.4834 48.0788 16.1717 48.2789L17.3189 48.6124C17.6103 48.688 17.9144 48.7672 18.2313 48.8501C18.5397 48.9306 18.8494 49.0068 19.1602 49.0788C19.4736 49.1423 19.787 49.2058 20.1003 49.2694L19.6284 50.8838C19.3915 50.8425 19.1322 50.7993 18.8503 50.7541C18.5625 50.698 18.2728 50.6322 17.9814 50.5567L17.9183 50.7728C18.2065 50.9853 18.4586 51.2425 18.6746 51.5444C18.8822 51.8438 19.0196 52.178 19.0869 52.547C19.1457 52.9135 19.1157 53.3002 18.9968 53.707ZM17.885 52.5424C17.9321 52.3814 17.9537 52.2129 17.9498 52.0371C17.9398 51.8503 17.9019 51.6646 17.836 51.4799C17.7726 51.2868 17.6745 51.1019 17.5417 50.9254C17.4114 50.7404 17.2512 50.5789 17.061 50.4408L16.0466 50.1735L16.1831 49.8959C16.2514 50.0721 16.2899 50.2718 16.2984 50.495C16.3009 50.7072 16.2869 50.9284 16.2565 51.1586C16.2286 51.3804 16.2049 51.6034 16.1854 51.8276C16.166 52.0518 16.1655 52.2585 16.1839 52.4478C16.2024 52.6371 16.2562 52.7998 16.3454 52.9361C16.4262 53.0699 16.5728 53.1677 16.7852 53.2295C17.0402 53.3036 17.2689 53.2782 17.4714 53.1531C17.6679 53.0172 17.8058 52.8136 17.885 52.5424Z" fill="#102B32"/>
<path d="M22.6514 44.0589C22.379 44.5942 22.0618 45.0227 21.6996 45.3443C21.3375 45.6658 20.9462 45.8886 20.5259 46.0124C20.1095 46.1284 19.6739 46.1554 19.2191 46.0935C18.7563 46.0276 18.2921 45.8768 17.8264 45.6411C17.337 45.3935 16.925 45.1009 16.5906 44.7633C16.2482 44.4218 15.9951 44.0413 15.8314 43.6218C15.6676 43.2024 15.603 42.7539 15.6375 42.2764C15.672 41.7989 15.8174 41.3083 16.0737 40.8045C16.3381 40.2849 16.6512 39.8841 17.0131 39.602C17.3791 39.312 17.774 39.1308 18.198 39.0583C18.6141 38.9818 19.0415 39.0099 19.4801 39.1428L19.1725 40.9472C18.9 40.839 18.6489 40.796 18.4191 40.8183C18.1855 40.8288 17.9812 40.8987 17.8063 41.0279C17.6313 41.1572 17.4858 41.3359 17.3696 41.5642C17.2575 41.7846 17.2028 41.9995 17.2055 42.2087C17.2082 42.418 17.2663 42.6256 17.3799 42.8315C17.4896 43.0256 17.6468 43.2141 17.8516 43.3969C18.0603 43.5718 18.3186 43.7372 18.6265 43.893C19.0527 44.1087 19.4439 44.2374 19.7999 44.2789C20.148 44.3165 20.4571 44.2651 20.7271 44.1245C20.9933 43.9721 21.2124 43.7267 21.3847 43.3882C21.5409 43.0812 21.6019 42.8052 21.5677 42.5602C21.5376 42.3074 21.4498 42.0897 21.3044 41.9073C21.1551 41.7129 20.978 41.554 20.7728 41.4304L21.8556 40.0925C22.1474 40.2798 22.3994 40.5063 22.6116 40.7721C22.8159 41.0339 22.9605 41.3347 23.0456 41.6748C23.1347 42.0069 23.1503 42.3761 23.0925 42.7824C23.0307 43.1769 22.8837 43.6024 22.6514 44.0589Z" fill="#102B32"/>
<path d="M26.8117 37.2844C26.3548 37.9136 25.8524 38.2592 25.3046 38.3213C24.7548 38.371 24.1179 38.1344 23.3938 37.6114L20.9206 35.8249L20.3365 36.6292L19.1663 35.7349L19.5401 35.2202C19.7043 34.979 19.7921 34.7754 19.8034 34.6092C19.8077 34.4379 19.7208 34.2716 19.5428 34.1103L18.8836 33.4379L19.5222 32.5586L20.7803 33.4673L21.8084 32.0518L23.0665 32.9605L22.0384 34.3761L24.3933 36.0771C24.6514 36.2635 24.8855 36.34 25.0957 36.3065C25.2986 36.2678 25.491 36.1233 25.6727 35.8731C25.7662 35.7444 25.8427 35.6089 25.9023 35.4667C25.9599 35.3121 25.9964 35.1641 26.0117 35.0225L27.4419 36.0556C27.3526 36.329 27.2512 36.5664 27.1377 36.7678C27.0243 36.9692 26.9156 37.1415 26.8117 37.2844Z" fill="#102B32"/>
<path d="M35.2688 28.5548C34.8448 28.8883 34.4339 29.1384 34.036 29.3052C33.6436 29.479 33.2627 29.5818 32.8933 29.6137C32.5185 29.6387 32.1608 29.5997 31.82 29.4967C31.4738 29.3868 31.1439 29.219 30.8303 28.9935C30.5236 28.7625 30.2332 28.4738 29.9592 28.1272L26.6621 23.958L28.1633 22.7772L31.4193 26.8944C31.6988 27.2479 31.9874 27.4988 32.285 27.647C32.584 27.7828 32.892 27.8159 33.2091 27.7464C33.5262 27.6769 33.8584 27.5055 34.2059 27.2322C34.5604 26.9534 34.805 26.6711 34.9397 26.3853C35.0813 26.094 35.1173 25.7902 35.0476 25.474C34.9794 25.1454 34.8055 24.8044 34.526 24.4509L31.27 20.3337L32.7713 19.1529L36.0683 23.3221C36.7809 24.2232 37.0808 25.1228 36.9681 26.0209C36.85 26.9121 36.2835 27.7567 35.2688 28.5548Z" fill="#102B32"/>
<path d="M43.4433 23.2894C43.0235 23.4984 42.6236 23.6481 42.2435 23.7386C41.8634 23.8292 41.5091 23.8625 41.1806 23.8385C40.856 23.8028 40.5651 23.7157 40.3079 23.5774C40.0547 23.4272 39.8391 23.2237 39.6611 22.967L40.7367 21.8248C40.8553 21.9828 41.0215 22.1073 41.2352 22.1983C41.4528 22.2774 41.7042 22.3052 41.9892 22.2817C42.2703 22.2503 42.5811 22.1499 42.9217 21.9804C43.2781 21.803 43.5296 21.6136 43.6762 21.4124C43.8188 21.2033 43.8407 21 43.7419 20.8025C43.6668 20.6524 43.5521 20.5616 43.3977 20.5299C43.2433 20.4982 43.0434 20.504 42.798 20.5472C42.5604 20.5865 42.2774 20.6534 41.9487 20.7479C41.6043 20.8306 41.2618 20.9074 40.9213 20.9782C40.5769 21.0411 40.2384 21.0665 39.9059 21.0544C39.5813 21.0384 39.2825 20.9553 39.0095 20.8051C38.7364 20.6549 38.511 20.4021 38.3331 20.0466C38.1394 19.6596 38.0744 19.2727 38.138 18.8858C38.2016 18.499 38.3919 18.128 38.7088 17.773C39.0297 17.406 39.4713 17.0826 40.0336 16.8027C40.5405 16.5504 41.0235 16.3988 41.4828 16.3478C41.946 16.2849 42.3675 16.3267 42.7474 16.473C43.1234 16.6115 43.4439 16.8466 43.7088 17.1784L42.5383 18.3086C42.4078 18.1269 42.2436 17.9965 42.0457 17.9174C41.8518 17.8265 41.6381 17.7948 41.4045 17.8222C41.171 17.8497 40.9195 17.9305 40.6503 18.0645C40.3176 18.2301 40.0839 18.4154 39.9492 18.6206C39.8224 18.8219 39.8044 19.0133 39.8954 19.195C39.9705 19.3451 40.0911 19.4379 40.2574 19.4736C40.4315 19.5053 40.6413 19.4995 40.8868 19.4563C41.1362 19.4012 41.4272 19.3303 41.7598 19.2437C42.1082 19.1492 42.4507 19.0725 42.7872 19.0135C43.1277 18.9427 43.4543 18.9133 43.767 18.9253C44.0797 18.9374 44.3627 19.0185 44.6159 19.1687C44.8771 19.315 45.0966 19.5658 45.2745 19.9212C45.48 20.332 45.5451 20.7386 45.4696 21.1413C45.3941 21.5439 45.186 21.9287 44.8453 22.2956C44.5046 22.6625 44.0372 22.9938 43.4433 23.2894Z" fill="#102B32"/>
<path d="M53.1165 15.1411L51.5299 14.4489L52.6283 12.9162L52.583 12.8311L50.7021 12.9864L50.8448 11.2369L52.68 11.8222L52.7339 11.7566L51.9835 10.0206L53.7367 9.64861L53.7598 11.539L53.8488 11.5743L55.2472 10.3028L56.1203 11.8504L54.3464 12.4434L54.3555 12.5498L55.9686 13.4936L54.8047 14.7829L53.6562 13.2803L53.5523 13.3023L53.1165 15.1411Z" fill="#102B32"/>
</svg>
