<svg width="130" height="130" viewBox="0 0 130 130" fill="none" xmlns="http://www.w3.org/2000/svg">
<circle cx="65" cy="65" r="65" fill="#59ccf9"/>
<circle cx="64.9996" cy="64.9976" r="33.6207" fill="white"/>
<path fill-rule="evenodd" clip-rule="evenodd" d="M67.6444 54.9182L61.3035 58.6055L57.6078 60.737V66.5272V69.2661V75.7382L58.4996 76.2525L60.6301 77.4821V74.0907V71.01V62.4817L62.8147 61.221L64.9992 59.9611L70.652 56.6547L73.5827 54.9541L64.9992 50.002L58.4988 53.7523L52 57.5026V72.503L54.9389 74.1987V59.1983L59.9682 56.2958L64.9992 53.3933L67.6452 54.919L67.6444 54.9182ZM75.0603 61.0387V70.8056L70.0293 73.7081L66.4163 75.793V72.7237V66.0252L69.3682 64.3221L71.4219 63.1374L72.3906 62.5782L75.0603 61.0387ZM71.0144 59.9431L67.9921 61.687L63.4446 64.3107V67.7413V69.1459V79.1051L65 80.002L66.4171 79.1844L71.5004 76.2525L78 72.5022V65.0015V57.5009L76.6246 56.7079L74.6766 57.8321L73.6849 58.4036L71.0152 59.9439L71.0144 59.9431Z" fill="#102B32"/>
<path d="M70.0628 18.4905C69.3853 18.4165 68.7887 18.2537 68.2732 18.0021C67.7664 17.7514 67.349 17.4172 67.0208 16.9996C66.6927 16.5819 66.4621 16.0861 66.3292 15.5121C66.1963 14.9381 66.1689 14.2958 66.2469 13.585C66.3278 12.8479 66.4958 12.2091 66.751 11.6686C67.016 11.1203 67.3549 10.6689 67.7678 10.3143C68.1817 9.95099 68.6549 9.69627 69.1874 9.55014C69.7208 9.39524 70.3043 9.35237 70.9378 9.42152C71.4306 9.4753 71.8765 9.59057 72.2756 9.76734C72.6747 9.94411 73.0104 10.1717 73.2826 10.45C73.5557 10.7196 73.7567 11.039 73.8853 11.4083C74.0149 11.7688 74.0562 12.164 74.009 12.594L72.2045 12.8499C72.2459 12.4726 72.2009 12.1524 72.0694 11.8894C71.939 11.6177 71.7529 11.4064 71.5112 11.2557C71.2705 11.0962 71.0006 11.0002 70.7014 10.9675C70.4374 10.9387 70.1721 10.963 69.9053 11.0405C69.6474 11.1189 69.3999 11.265 69.1627 11.4789C68.9353 11.685 68.7393 11.97 68.5747 12.3338C68.4198 12.6899 68.3126 13.14 68.2529 13.684C68.1758 14.3861 68.2144 14.9675 68.3686 15.4283C68.5229 15.8892 68.7644 16.2441 69.0932 16.4931C69.4309 16.7431 69.8241 16.8926 70.2728 16.9416C70.748 16.9935 71.1281 16.9373 71.4133 16.773C71.7082 16.601 71.9302 16.3632 72.0793 16.0598C72.2371 15.7573 72.3397 15.4311 72.387 15.081L74.0343 15.5273C73.9745 15.9914 73.856 16.4225 73.6787 16.8205C73.5112 17.2107 73.2654 17.5435 72.9414 17.819C72.6261 18.0954 72.2301 18.2963 71.7532 18.4219C71.2774 18.5387 70.7139 18.5615 70.0628 18.4905Z" fill="#102B32"/>
<path d="M79.1877 20.4205C78.532 20.2048 77.9949 19.8841 77.5764 19.4584C77.1608 19.0243 76.8945 18.5045 76.7778 17.8991C76.6639 17.2853 76.7344 16.5928 76.9894 15.8215C77.2444 15.0502 77.5994 14.4559 78.0543 14.0385C78.5176 13.6238 79.043 13.3737 79.6305 13.288C80.2209 13.194 80.8397 13.2534 81.4869 13.4663C82.151 13.6847 82.6923 14.0067 83.1108 14.4325C83.5292 14.8582 83.7954 15.378 83.9094 15.9918C84.0345 16.5999 83.9696 17.2896 83.7146 18.0609C83.454 18.849 83.0921 19.4503 82.6288 19.865C82.1655 20.2796 81.6358 20.5284 81.0399 20.6113C80.4439 20.6942 79.8265 20.6305 79.1877 20.4205ZM79.6956 19.0956C80.0234 19.2034 80.3216 19.2178 80.59 19.1388C80.8585 19.0598 81.0973 18.8873 81.3063 18.6214C81.5266 18.35 81.7088 17.9962 81.8529 17.5603C82.0054 17.0992 82.0712 16.6886 82.0505 16.3286C82.0409 15.9629 81.9461 15.6575 81.7662 15.4125C81.5974 15.1618 81.3365 14.9784 80.9834 14.8623C80.664 14.7572 80.3658 14.7428 80.089 14.8191C79.8205 14.8981 79.5775 15.0692 79.3601 15.3323C79.1426 15.5954 78.9604 15.9491 78.8135 16.3935C78.5779 17.1061 78.5378 17.6924 78.6932 18.1525C78.8571 18.6154 79.1912 18.9298 79.6956 19.0956Z" fill="#102B32"/>
<path d="M85.1388 22.421L87.2147 18.7848L88.5877 16.3798L89.9492 17.1529L88.8669 19.022L89.0861 19.1465C89.4412 18.7386 89.7926 18.4353 90.1403 18.2366C90.4957 18.0423 90.8573 17.953 91.2252 17.9689C91.5974 17.9771 91.9758 18.0903 92.3604 18.3087C93.0604 18.7062 93.451 19.2531 93.5322 19.9493C93.6178 20.6379 93.365 21.5 92.7737 22.5356L90.954 25.723L89.2925 24.7796L91.0071 21.7763C91.3663 21.1472 91.5345 20.6384 91.512 20.2497C91.4938 19.8534 91.3039 19.5526 90.9424 19.3473C90.6347 19.1726 90.3223 19.1221 90.0051 19.196C89.7 19.2665 89.4016 19.4323 89.11 19.6934C88.8184 19.9544 88.5587 20.2844 88.3309 20.6833L86.8003 23.3644L85.1388 22.421Z" fill="#102B32"/>
<path d="M94.9509 28.9988C94.3459 28.5095 94.0272 27.9904 93.9949 27.4415C93.975 26.8913 94.2466 26.2699 94.8096 25.5774L96.733 23.2118L95.9595 22.5863L96.9186 21.4697L97.4137 21.87C97.6461 22.0466 97.8452 22.1451 98.011 22.1655C98.1823 22.179 98.3536 22.1015 98.5247 21.9331L99.2338 21.3132L100.079 21.997L99.1011 23.2004L100.462 24.3012L99.4841 25.5046L98.1227 24.4038L96.2914 26.6562C96.0907 26.9031 96.0014 27.132 96.0235 27.3431C96.0512 27.5473 96.1854 27.7467 96.426 27.9413C96.5498 28.0414 96.6812 28.125 96.8204 28.1921C96.972 28.2579 97.1183 28.3023 97.2591 28.3252L96.1469 29.6932C95.8781 29.5894 95.6459 29.4755 95.4504 29.3515C95.2549 29.2275 95.0884 29.1099 94.9509 28.9988Z" fill="#102B32"/>
<path d="M98.8429 32.5959C98.5826 32.307 98.4079 32.0007 98.3187 31.6772C98.2295 31.3536 98.2344 31.0288 98.3334 30.7028C98.4383 30.3834 98.652 30.0791 98.9747 29.79C99.2644 29.5304 99.552 29.3676 99.8376 29.3016C100.129 29.2421 100.429 29.2644 100.737 29.3683C101.05 29.4788 101.383 29.6497 101.734 29.881C102.085 30.1123 102.461 30.398 102.863 30.7383C103.098 30.9196 103.294 31.0644 103.451 31.1728C103.608 31.2812 103.749 31.3387 103.874 31.3454C103.999 31.3521 104.124 31.2994 104.249 31.1873C104.44 31.0162 104.542 30.806 104.556 30.5567C104.569 30.3073 104.446 30.0382 104.186 29.7493C104.02 29.5654 103.83 29.4209 103.616 29.3157C103.409 29.2171 103.182 29.1707 102.938 29.1764C102.705 29.1827 102.469 29.2576 102.23 29.4011L101.45 27.8217C101.798 27.6403 102.139 27.5304 102.473 27.4919C102.808 27.4535 103.135 27.4804 103.456 27.5725C103.79 27.6653 104.111 27.8168 104.419 28.0271C104.727 28.2373 105.023 28.5 105.307 28.8152C105.757 29.3143 106.044 29.7985 106.17 30.2677C106.295 30.737 106.254 31.2005 106.048 31.6583C105.854 32.1168 105.491 32.585 104.957 33.0628L104.068 33.8593C103.85 34.0664 103.623 34.2824 103.385 34.5073C103.154 34.7263 102.926 34.9485 102.7 35.174C102.481 35.4061 102.262 35.6382 102.043 35.8703L100.916 34.6193C101.076 34.4403 101.249 34.2433 101.436 34.0283C101.636 33.8139 101.845 33.6031 102.062 33.3959L101.912 33.2285C101.579 33.3607 101.227 33.4389 100.855 33.4628C100.491 33.4809 100.134 33.4212 99.7838 33.2837C99.4405 33.1404 99.1269 32.9111 98.8429 32.5959ZM100.421 32.2676C100.534 32.3923 100.666 32.4994 100.818 32.5888C100.982 32.6788 101.16 32.7446 101.352 32.7861C101.55 32.8342 101.76 32.8485 101.98 32.829C102.206 32.816 102.428 32.7654 102.646 32.677L103.409 31.9582L103.573 32.2201C103.387 32.1852 103.197 32.1125 103.002 32.0021C102.82 31.8924 102.639 31.7639 102.459 31.6168C102.285 31.4762 102.107 31.3386 101.926 31.204C101.745 31.0693 101.569 30.9599 101.399 30.8758C101.228 30.7916 101.06 30.7514 100.897 30.7552C100.741 30.7531 100.58 30.8258 100.415 30.9733C100.218 31.1503 100.119 31.3576 100.119 31.5951C100.131 31.8333 100.232 32.0574 100.421 32.2676Z" fill="#102B32"/>
<path d="M105.145 40.7751C104.831 40.2626 104.632 39.7682 104.548 39.2919C104.465 38.8157 104.48 38.3667 104.596 37.9449C104.715 37.5307 104.921 37.147 105.213 36.7936C105.513 36.4356 105.885 36.1211 106.331 35.8498C106.8 35.5648 107.266 35.3692 107.73 35.2628C108.201 35.1519 108.659 35.1372 109.102 35.2188C109.546 35.3003 109.963 35.4812 110.352 35.7615C110.741 36.0418 111.083 36.4231 111.378 36.9054C111.682 37.4028 111.86 37.8791 111.91 38.3345C111.965 38.7973 111.912 39.2277 111.751 39.6255C111.598 40.0188 111.349 40.3665 111.005 40.6688L109.628 39.4593C109.863 39.285 110.032 39.0945 110.133 38.8879C110.247 38.6842 110.295 38.4742 110.277 38.2578C110.259 38.0414 110.183 37.824 110.049 37.6054C109.92 37.3944 109.765 37.2351 109.585 37.1274C109.406 37.0197 109.198 36.9599 108.963 36.948C108.739 36.939 108.496 36.9733 108.232 37.0509C107.973 37.1361 107.697 37.2683 107.402 37.4476C106.994 37.6958 106.678 37.96 106.456 38.2402C106.241 38.5158 106.122 38.8051 106.1 39.108C106.09 39.4139 106.184 39.7289 106.383 40.053C106.562 40.3469 106.766 40.5437 106.993 40.6435C107.224 40.7508 107.456 40.7908 107.688 40.7633C107.932 40.7389 108.161 40.6721 108.374 40.563L108.946 42.1849C108.633 42.334 108.307 42.4287 107.969 42.469C107.638 42.5048 107.306 42.4693 106.971 42.3628C106.641 42.2637 106.318 42.0829 106.002 41.8203C105.698 41.5606 105.412 41.2122 105.145 40.7751Z" fill="#102B32"/>
<path d="M108.739 47.8788C108.443 47.1602 108.413 46.5523 108.649 46.0551C108.896 45.5627 109.433 45.1471 110.26 44.8085L113.085 43.6517L112.706 42.733L114.085 42.2114L114.327 42.7994C114.446 43.0655 114.573 43.2471 114.709 43.3443C114.853 43.438 115.04 43.4519 115.272 43.3859L116.192 43.1808L116.605 44.1852L115.168 44.7737L115.834 46.3905L114.397 46.979L113.731 45.3621L111.042 46.4636C110.747 46.5843 110.558 46.7426 110.476 46.9384C110.403 47.1309 110.424 47.37 110.542 47.6558C110.603 47.8028 110.678 47.939 110.768 48.0644C110.869 48.1947 110.976 48.3035 111.089 48.391L109.455 49.06C109.269 48.8404 109.12 48.6294 109.008 48.4272C108.896 48.2249 108.807 48.0421 108.739 47.8788Z" fill="#102B32"/>
<path d="M111.711 59.6259C111.651 59.0907 111.655 58.6106 111.723 58.1855C111.783 57.7615 111.897 57.3846 112.065 57.0551C112.241 56.7245 112.464 56.4422 112.731 56.2081C113.008 55.9731 113.325 55.7824 113.683 55.636C114.041 55.4984 114.441 55.4051 114.88 55.3562L120.172 54.7676L120.384 56.6626L115.158 57.2439C114.71 57.2938 114.344 57.4055 114.06 57.5792C113.787 57.7606 113.596 58.0039 113.487 58.3091C113.379 58.6143 113.349 58.9862 113.398 59.4248C113.448 59.8723 113.56 60.2285 113.732 60.4936C113.905 60.7675 114.144 60.9584 114.45 61.0665C114.766 61.1824 115.148 61.2154 115.597 61.1655L120.822 60.5842L121.034 62.4792L115.743 63.0678C114.599 63.195 113.675 62.9736 112.97 62.4037C112.274 61.8327 111.854 60.9068 111.711 59.6259Z" fill="#102B32"/>
<path d="M111.871 69.4229C111.915 68.9571 111.999 68.5394 112.123 68.1697C112.246 67.8 112.405 67.4824 112.599 67.2168C112.801 66.9609 113.029 66.7606 113.282 66.6158C113.544 66.4807 113.831 66.4057 114.144 66.3906L114.548 67.9047C114.351 67.9217 114.157 67.9967 113.967 68.1296C113.784 68.2721 113.628 68.4702 113.497 68.724C113.376 68.9786 113.297 69.2949 113.261 69.6728C113.224 70.0683 113.253 70.3813 113.346 70.6117C113.449 70.843 113.611 70.9689 113.831 70.9896C113.998 71.0052 114.136 70.9561 114.245 70.8421C114.353 70.7282 114.454 70.5558 114.547 70.3251C114.639 70.1032 114.731 69.8282 114.825 69.5C114.936 69.1646 115.052 68.8341 115.171 68.5083C115.3 68.1834 115.457 67.8834 115.643 67.6082C115.828 67.3418 116.057 67.1327 116.329 66.9809C116.601 66.829 116.935 66.7716 117.332 66.8088C117.764 66.8492 118.127 66.9985 118.423 67.2567C118.719 67.515 118.934 67.872 119.069 68.328C119.212 68.7936 119.254 69.3383 119.195 69.9624C119.142 70.5249 119.016 71.014 118.817 71.4298C118.626 71.8552 118.368 72.1901 118.042 72.4345C117.726 72.6798 117.356 72.8269 116.934 72.876L116.59 71.2878C116.814 71.2733 117.011 71.2031 117.183 71.0773C117.363 70.9612 117.503 70.797 117.603 70.5847C117.703 70.3724 117.767 70.1168 117.795 69.818C117.83 69.4488 117.796 69.153 117.692 68.9305C117.588 68.7169 117.434 68.6005 117.231 68.5815C117.064 68.5659 116.921 68.619 116.803 68.7409C116.684 68.8716 116.578 69.0524 116.485 69.2831C116.4 69.5234 116.307 69.8072 116.205 70.1346C116.102 70.4795 115.986 70.8101 115.858 71.1262C115.739 71.4519 115.591 71.744 115.416 72.0024C115.24 72.2609 115.022 72.4576 114.76 72.5927C114.498 72.7366 114.168 72.79 113.772 72.7529C113.313 72.71 112.933 72.5502 112.63 72.2736C112.327 71.997 112.109 71.6175 111.977 71.1352C111.844 70.6529 111.809 70.0821 111.871 69.4229Z" fill="#102B32"/>
<path d="M113.718 81.8842L115.144 80.9047L115.871 82.6436L115.967 82.65L116.827 80.9742L118.242 82.0175L116.776 83.2641L116.803 83.3444L118.678 83.6238L118.071 85.3056L116.448 84.3286L116.371 84.3854L116.717 86.2407L114.938 86.1647L115.368 84.3488L115.273 84.3005L113.618 85.1698L113.133 83.5038L115.019 83.3227L115.055 83.223L113.718 81.8842Z" fill="#102B32"/>
<path d="M103.316 92.606C103.711 92.0519 104.144 91.6116 104.615 91.2851C105.082 90.9658 105.578 90.7649 106.103 90.6825C106.629 90.6001 107.175 90.6408 107.743 90.8046C108.31 90.9684 108.886 91.2573 109.47 91.6715C110.077 92.1009 110.554 92.5584 110.903 93.044C111.254 93.5418 111.485 94.0569 111.594 94.5892C111.711 95.1266 111.703 95.6628 111.572 96.1978C111.448 96.7379 111.201 97.267 110.832 97.7851C110.545 98.1881 110.227 98.5204 109.877 98.7819C109.528 99.0435 109.166 99.225 108.789 99.3265C108.42 99.4331 108.042 99.4526 107.656 99.3848C107.278 99.3221 106.911 99.1655 106.558 98.915L107.213 97.2186C107.523 97.4385 107.825 97.5552 108.119 97.5688C108.421 97.5875 108.697 97.5284 108.946 97.3912C109.203 97.2592 109.419 97.0709 109.593 96.8262C109.747 96.6103 109.855 96.3674 109.917 96.0973C109.974 95.8345 109.966 95.5477 109.895 95.2369C109.825 94.9385 109.671 94.6289 109.432 94.3084C109.196 94.0001 108.854 93.6874 108.407 93.3705C107.829 92.9614 107.301 92.7119 106.823 92.6218C106.344 92.5316 105.916 92.5692 105.537 92.7343C105.154 92.9066 104.831 93.1763 104.57 93.5433C104.293 93.9319 104.157 94.2904 104.162 94.6188C104.169 94.9595 104.269 95.2686 104.462 95.5462C104.65 95.831 104.886 96.0793 105.17 96.291L103.977 97.5085C103.599 97.2303 103.28 96.9171 103.017 96.5689C102.757 96.233 102.585 95.8568 102.502 95.4404C102.413 95.0311 102.43 94.5883 102.553 94.1118C102.682 93.6405 102.937 93.1385 103.316 92.606Z" fill="#102B32"/>
<path d="M97.1747 99.6237C97.682 99.1566 98.2238 98.844 98.8002 98.6859C99.3826 98.5342 99.9675 98.5544 100.555 98.7465C101.148 98.9451 101.721 99.3428 102.273 99.9395C102.826 100.536 103.174 101.134 103.32 101.734C103.458 102.339 103.422 102.918 103.212 103.472C103.008 104.033 102.656 104.543 102.155 105.004C101.641 105.477 101.096 105.793 100.52 105.951C99.9432 106.109 99.3583 106.089 98.7649 105.89C98.171 105.704 97.5979 105.313 97.0456 104.716C96.4812 104.106 96.1298 103.499 95.9912 102.894C95.8526 102.288 95.8916 101.706 96.1082 101.146C96.3249 100.586 96.6804 100.079 97.1747 99.6237ZM98.0895 100.71C97.8358 100.943 97.6785 101.196 97.6175 101.469C97.5564 101.741 97.5917 102.033 97.7233 102.344C97.8544 102.668 98.076 102.999 98.3882 103.336C98.7184 103.693 99.0464 103.949 99.3721 104.106C99.6973 104.275 100.011 104.341 100.313 104.303C100.615 104.278 100.902 104.139 101.175 103.888C101.423 103.66 101.58 103.407 101.648 103.129C101.709 102.856 101.677 102.561 101.551 102.244C101.426 101.927 101.205 101.596 100.887 101.252C100.376 100.701 99.8817 100.381 99.4028 100.294C98.9175 100.212 98.4798 100.35 98.0895 100.71Z" fill="#102B32"/>
<path d="M92.5373 103.845L94.7231 107.417L96.1688 109.779L94.8315 110.593L93.7153 108.744L93.5 108.875C93.686 109.382 93.782 109.836 93.7881 110.236C93.7866 110.64 93.6899 110.999 93.498 111.312C93.3107 111.633 93.0281 111.908 92.6503 112.138C91.9628 112.557 91.2939 112.633 90.6437 112.367C89.998 112.108 89.364 111.47 88.7414 110.453L86.8254 107.322L88.4574 106.329L90.2627 109.279C90.6409 109.897 91.0059 110.29 91.3579 110.458C91.7144 110.634 92.0703 110.614 92.4254 110.398C92.7276 110.214 92.923 109.966 93.0118 109.653C93.0975 109.353 93.0965 109.012 93.0086 108.631C92.9207 108.25 92.7568 107.864 92.517 107.472L90.9053 104.839L92.5373 103.845Z" fill="#102B32"/>
<path d="M82.0097 109.227C82.7322 108.936 83.3419 108.91 83.8389 109.148C84.331 109.398 84.7442 109.936 85.0784 110.763L86.22 113.588L87.1436 113.216L87.6576 114.594L87.0665 114.832C86.7989 114.949 86.6159 115.075 86.5176 115.21C86.4227 115.352 86.4076 115.539 86.4723 115.77L86.6719 116.689L85.6621 117.095L85.0814 115.658L83.4559 116.312L82.8752 114.875L84.5007 114.222L83.4137 111.532C83.2946 111.237 83.1371 111.048 82.9413 110.965C82.7488 110.89 82.5089 110.911 82.2215 111.026C82.0738 111.085 81.9367 111.16 81.8104 111.248C81.6791 111.349 81.5693 111.455 81.4808 111.566L80.8207 109.933C81.0421 109.749 81.2546 109.602 81.4581 109.491C81.6616 109.381 81.8455 109.293 82.0097 109.227Z" fill="#102B32"/>
<path d="M76.9537 110.873C77.3335 110.787 77.6868 110.784 78.0136 110.863C78.3404 110.943 78.6224 111.106 78.8598 111.351C79.0885 111.598 79.2509 111.932 79.347 112.354C79.4332 112.732 79.4357 113.062 79.3545 113.343C79.2646 113.626 79.0992 113.876 78.8583 114.094C78.6087 114.313 78.2972 114.52 77.9237 114.713C77.5502 114.906 77.1166 115.095 76.623 115.279C76.3499 115.395 76.1277 115.495 75.9562 115.58C75.7847 115.664 75.6657 115.759 75.599 115.864C75.5322 115.97 75.5175 116.104 75.5548 116.268C75.6116 116.518 75.746 116.709 75.9578 116.842C76.1697 116.975 76.4655 116.999 76.8453 116.913C77.087 116.858 77.3059 116.763 77.5021 116.628C77.6896 116.495 77.8405 116.32 77.9547 116.105C78.0622 115.899 78.1115 115.657 78.1025 115.379L79.8657 115.468C79.855 115.86 79.7852 116.21 79.656 116.52C79.5269 116.83 79.3439 117.102 79.1069 117.337C78.8632 117.582 78.5742 117.788 78.2399 117.954C77.9056 118.121 77.5313 118.251 77.117 118.345C76.461 118.493 75.897 118.508 75.4251 118.388C74.9531 118.269 74.5669 118.008 74.2664 117.605C73.9592 117.213 73.7262 116.669 73.5674 115.971L73.3027 114.809C73.2274 114.519 73.1492 114.215 73.068 113.898C72.9888 113.59 72.9053 113.283 72.8174 112.977C72.7209 112.673 72.6244 112.369 72.528 112.065L74.1723 111.693C74.2511 111.919 74.3392 112.166 74.4364 112.434C74.527 112.712 74.61 112.997 74.6853 113.288L74.9054 113.238C74.9517 112.883 75.0548 112.538 75.2145 112.204C75.3762 111.877 75.6024 111.595 75.8931 111.357C76.1858 111.128 76.5393 110.967 76.9537 110.873ZM76.4727 112.407C76.3087 112.445 76.1506 112.507 75.9983 112.596C75.8394 112.696 75.695 112.819 75.5651 112.966C75.4266 113.115 75.3122 113.29 75.222 113.492C75.1231 113.695 75.0593 113.913 75.0306 114.146L75.2889 115.16L74.9793 115.176C75.1006 115.031 75.2569 114.901 75.4484 114.785C75.6332 114.68 75.8339 114.584 76.0505 114.499C76.2584 114.416 76.4654 114.328 76.6714 114.236C76.8774 114.144 77.0588 114.044 77.2158 113.936C77.3727 113.828 77.4893 113.702 77.5654 113.558C77.6435 113.423 77.658 113.248 77.609 113.033C77.5502 112.774 77.4168 112.587 77.2089 112.471C76.9943 112.366 76.7489 112.345 76.4727 112.407Z" fill="#102B32"/>
<path d="M66.7316 112.374C67.3331 112.35 67.8628 112.418 68.3208 112.577C68.7788 112.736 69.1644 112.968 69.4775 113.274C69.7818 113.58 70.0176 113.947 70.1849 114.373C70.3525 114.808 70.4465 115.286 70.4668 115.806C70.4882 116.353 70.4325 116.855 70.2998 117.31C70.1673 117.775 69.9573 118.18 69.6697 118.527C69.3821 118.874 69.0208 119.149 68.5858 119.351C68.1508 119.554 67.6503 119.666 67.0842 119.688C66.5004 119.711 65.9969 119.633 65.5736 119.455C65.1415 119.278 64.7904 119.022 64.5205 118.688C64.2509 118.363 64.0675 117.977 63.9703 117.53L65.7003 116.919C65.7382 117.209 65.8229 117.449 65.9543 117.638C66.0772 117.837 66.2379 117.981 66.4363 118.07C66.6346 118.16 66.8621 118.199 67.1186 118.189C67.3662 118.18 67.581 118.123 67.763 118.018C67.9449 117.914 68.0984 117.762 68.2235 117.563C68.3401 117.373 68.4286 117.145 68.489 116.877C68.5406 116.61 68.5596 116.305 68.5462 115.961C68.5275 115.484 68.4497 115.081 68.3128 114.75C68.1762 114.429 67.9806 114.185 67.7261 114.018C67.463 113.86 67.1413 113.789 66.761 113.804C66.4161 113.817 66.1446 113.898 65.9467 114.047C65.74 114.197 65.5921 114.379 65.5031 114.595C65.4056 114.819 65.3526 115.051 65.3442 115.29L63.6453 114.998C63.6673 114.653 63.7429 114.323 63.8724 114.009C64.0022 113.703 64.1952 113.431 64.4516 113.191C64.6991 112.952 65.0149 112.759 65.3989 112.611C65.7744 112.473 66.2186 112.394 66.7316 112.374Z" fill="#102B32"/>
<path d="M58.6938 112.05C59.4674 112.141 60.0147 112.411 60.3359 112.858C60.6473 113.312 60.7503 113.982 60.6449 114.868L60.2851 117.892L61.2739 118.009L61.0607 119.464L60.4278 119.389C60.1367 119.363 59.9156 119.386 59.7646 119.457C59.6124 119.537 59.5091 119.694 59.4546 119.927L59.1869 120.829L58.1057 120.701L58.2888 119.162L56.5484 118.956L56.7314 117.418L58.4718 117.624L58.8145 114.744C58.852 114.429 58.8049 114.188 58.6732 114.021C58.5405 113.863 58.3203 113.766 58.0127 113.729C57.8544 113.711 57.6985 113.71 57.5449 113.727C57.3815 113.752 57.2341 113.793 57.1027 113.848L57.3108 112.099C57.5937 112.044 57.851 112.017 58.0827 112.017C58.3143 112.018 58.518 112.029 58.6938 112.05Z" fill="#102B32"/>
<path d="M46.9566 108.928C47.4546 109.136 47.8733 109.373 48.2125 109.64C48.5552 109.898 48.8301 110.18 49.0372 110.487C49.2409 110.801 49.3802 111.132 49.4551 111.479C49.5266 111.835 49.5395 112.204 49.4939 112.587C49.44 112.966 49.3276 113.359 49.1566 113.767L47.0996 118.664L45.3361 117.927L47.3675 113.091C47.5419 112.676 47.622 112.302 47.6076 111.971C47.5817 111.644 47.4613 111.36 47.2466 111.117C47.0319 110.874 46.7205 110.667 46.3123 110.497C45.8959 110.323 45.5297 110.246 45.2137 110.268C44.8896 110.285 44.6058 110.401 44.3623 110.615C44.1072 110.834 43.8925 111.151 43.7181 111.566L41.6867 116.403L39.9233 115.666L41.9803 110.769C42.4249 109.71 43.0682 109.012 43.9105 108.675C44.7493 108.346 45.7646 108.43 46.9566 108.928Z" fill="#102B32"/>
<path d="M38.3706 104.346C38.7572 104.611 39.0823 104.888 39.3458 105.176C39.6093 105.463 39.8101 105.756 39.9482 106.055C40.0741 106.355 40.1386 106.651 40.1418 106.943C40.1327 107.236 40.0586 107.523 39.9196 107.803L38.3967 107.417C38.4778 107.237 38.5066 107.032 38.4828 106.802C38.4468 106.573 38.3495 106.341 38.1908 106.103C38.0272 105.873 37.7885 105.651 37.4748 105.436C37.1466 105.211 36.8587 105.083 36.6112 105.052C36.3586 105.029 36.1697 105.109 36.0443 105.29C35.949 105.429 35.9249 105.573 35.9718 105.723C36.0188 105.873 36.1207 106.044 36.2775 106.238C36.427 106.426 36.6229 106.64 36.8649 106.881C37.1043 107.142 37.3375 107.404 37.5645 107.666C37.7865 107.936 37.9728 108.219 38.1232 108.515C38.2664 108.806 38.3382 109.107 38.3387 109.418C38.3391 109.729 38.2265 110.048 38.0009 110.376C37.7552 110.732 37.4472 110.976 37.0771 111.108C36.7069 111.24 36.2893 111.254 35.8243 111.149C35.347 111.047 34.8494 110.818 34.3315 110.463C33.8647 110.143 33.4977 109.795 33.2305 109.419C32.9511 109.045 32.7835 108.657 32.7279 108.255C32.6673 107.86 32.7183 107.466 32.881 107.075L34.4395 107.548C34.3433 107.75 34.3084 107.957 34.3349 108.168C34.349 108.381 34.4247 108.583 34.5619 108.773C34.6991 108.964 34.8918 109.144 35.1398 109.314C35.4461 109.524 35.7219 109.638 35.9672 109.656C36.2052 109.67 36.3818 109.592 36.4971 109.425C36.5924 109.287 36.6154 109.137 36.5662 108.974C36.5097 108.807 36.403 108.627 36.2461 108.434C36.077 108.243 35.8739 108.023 35.6368 107.775C35.3852 107.517 35.152 107.255 34.9373 106.99C34.7102 106.727 34.5263 106.456 34.3854 106.178C34.2445 105.899 34.1786 105.613 34.1877 105.319C34.1896 105.02 34.3033 104.707 34.5289 104.38C34.7897 104.002 35.1149 103.748 35.5047 103.619C35.8945 103.49 36.3328 103.485 36.8197 103.605C37.3066 103.724 37.8235 103.971 38.3706 104.346Z" fill="#102B32"/>
<path d="M26.5511 99.8864L26.7179 101.605L24.8407 101.396L24.7882 101.477L25.8406 103.039L24.2391 103.767L23.8575 101.884L23.7738 101.869L22.6192 103.368L21.4394 102.022L23.0834 101.081L23.0709 100.986L21.2763 100.388L22.206 98.8735L23.5896 100.13L23.6783 100.07L23.7188 98.2051L25.4149 98.5906L24.6587 100.323L24.7286 100.403L26.5511 99.8864Z" fill="#102B32"/>
<path d="M22.1856 85.6124C22.4805 86.2253 22.6569 86.8164 22.7149 87.3859C22.7691 87.9475 22.705 88.4775 22.5227 88.976C22.3403 89.4745 22.0399 89.9315 21.6214 90.3472C21.2029 90.7629 20.6704 91.1254 20.024 91.4347C19.3536 91.7555 18.7209 91.9505 18.1259 92.0198C17.5191 92.085 16.9558 92.0364 16.4358 91.874C15.9079 91.7154 15.4411 91.4492 15.0355 91.0754C14.6219 90.7054 14.2772 90.2339 14.0015 89.6609C13.7871 89.2152 13.6497 88.7767 13.5895 88.3453C13.5292 87.914 13.5457 87.5095 13.639 87.132C13.7242 86.7583 13.8901 86.4195 14.1366 86.1155C14.375 85.8153 14.6898 85.5717 15.0809 85.3846L16.2518 86.7776C15.9086 86.9418 15.6598 87.149 15.5052 87.3992C15.3427 87.6532 15.2611 87.9223 15.2605 88.2066C15.2518 88.4947 15.3126 88.774 15.4428 89.0447C15.5576 89.2834 15.7185 89.4953 15.9253 89.6803C16.1283 89.8573 16.3834 89.9898 16.6908 90.0777C16.9864 90.1614 17.3325 90.1769 17.7293 90.1241C18.1143 90.0672 18.5541 89.9204 19.0489 89.6836C19.6874 89.3781 20.1621 89.0383 20.473 88.6643C20.784 88.2904 20.9586 87.8984 20.997 87.4884C21.0315 87.0704 20.9511 86.6585 20.7558 86.2526C20.5491 85.8228 20.3005 85.5305 20.01 85.3758C19.7078 85.2169 19.3881 85.1544 19.051 85.1884C18.7101 85.2145 18.3781 85.2999 18.0551 85.4447L17.5651 83.814C17.9919 83.6196 18.4215 83.4923 18.854 83.4322C19.2747 83.3679 19.6879 83.4003 20.0936 83.5293C20.4955 83.6503 20.8757 83.8796 21.2345 84.2171C21.5852 84.5584 21.9023 85.0235 22.1856 85.6124Z" fill="#102B32"/>
<path d="M19.0083 76.8542C19.1705 77.5234 19.1807 78.1477 19.0387 78.7268C18.8881 79.308 18.5858 79.8077 18.1317 80.2259C17.6689 80.6462 17.0418 80.9518 16.2502 81.1426C15.4587 81.3334 14.7652 81.3462 14.1696 81.1809C13.572 81.0071 13.0818 80.6939 12.6989 80.2413C12.3074 79.7907 12.0316 79.2351 11.8715 78.5744C11.7072 77.8966 11.696 77.2681 11.838 76.6889C11.9799 76.1098 12.2823 75.6101 12.745 75.1898C13.1971 74.763 13.8189 74.4542 14.6104 74.2634C15.4192 74.0684 16.1224 74.0579 16.72 74.2317C17.3176 74.4055 17.8089 74.723 18.1938 75.1842C18.5788 75.6454 18.8503 76.202 19.0083 76.8542ZM17.6118 77.1227C17.5307 76.788 17.3857 76.5278 17.1768 76.3421C16.9678 76.1563 16.695 76.045 16.3582 76.0081C16.0108 75.9647 15.6133 75.9969 15.1659 76.1047C14.6927 76.2188 14.3082 76.3796 14.0125 76.5871C13.7061 76.7881 13.4959 77.0295 13.3821 77.3112C13.2575 77.5864 13.2389 77.9042 13.3263 78.2646C13.4053 78.5907 13.5503 78.8509 13.7613 79.0452C13.9703 79.231 14.2441 79.3466 14.583 79.3921C14.9218 79.4376 15.3193 79.4053 15.7753 79.2954C16.5066 79.1191 17.0272 78.8438 17.3372 78.4694C17.645 78.0864 17.7366 77.6375 17.6118 77.1227Z" fill="#102B32"/>
<path d="M17.5728 70.7531L13.3804 70.9173L10.6076 71.0259L10.5461 69.4646L12.7092 69.3932L12.6993 69.1418C12.1644 69.0567 11.7205 68.9195 11.3676 68.7301C11.0143 68.532 10.7472 68.273 10.5663 67.9532C10.3766 67.6337 10.273 67.2535 10.2557 66.8125C10.2241 66.0098 10.4831 65.39 11.0329 64.9533C11.5738 64.5169 12.4412 64.2753 13.6353 64.2285L17.3102 64.0846L17.3853 65.9899L13.9226 66.1255C13.1973 66.1539 12.6752 66.2804 12.3563 66.5049C12.0285 66.7298 11.8728 67.0495 11.8891 67.4641C11.903 67.8169 12.0252 68.1081 12.2557 68.3376C12.477 68.5586 12.7758 68.7236 13.1522 68.8325C13.5285 68.9415 13.9467 68.9869 14.4066 68.9689L17.4978 68.8478L17.5728 70.7531Z" fill="#102B32"/>
<path d="M17.9868 58.8968C17.89 59.6676 17.6165 60.2117 17.1663 60.5291C16.7084 60.8367 16.0359 60.9351 15.1488 60.8243L12.1187 60.4458L11.995 61.4312L10.5375 61.2091L10.6167 60.5785C10.6443 60.2883 10.6229 60.0677 10.5527 59.9166C10.4737 59.7644 10.3172 59.6603 10.0834 59.6044L9.18099 59.3316L9.31629 58.2542L10.8577 58.4467L11.0755 56.7124L12.6169 56.9049L12.3991 58.6392L15.2843 58.9996C15.6005 59.0391 15.8426 58.9937 16.0106 58.8635C16.1698 58.7321 16.2687 58.5131 16.3072 58.2066C16.327 58.0489 16.3287 57.8934 16.3122 57.7401C16.2881 57.577 16.2486 57.4297 16.1938 57.2983L17.946 57.5172C17.9997 57.7997 18.0254 58.0564 18.0232 58.2875C18.0209 58.5185 18.0088 58.7216 17.9868 58.8968Z" fill="#102B32"/>
<path d="M18.9968 53.706C18.8878 54.0789 18.7189 54.3884 18.4902 54.6345C18.2615 54.8807 17.9822 55.0477 17.6522 55.1357C17.3247 55.2152 16.9528 55.1944 16.5364 55.0733C16.1625 54.9646 15.8721 54.8067 15.6653 54.5994C15.461 54.3837 15.322 54.118 15.2483 53.8023C15.1771 53.4782 15.1475 53.1064 15.1595 52.6869C15.1715 52.2674 15.2165 51.7978 15.2947 51.278C15.3255 50.9835 15.3456 50.7411 15.3552 50.5508C15.3647 50.3605 15.3394 50.2106 15.2792 50.1011C15.219 49.9917 15.1081 49.9135 14.9467 49.8665C14.7002 49.7949 14.4673 49.8191 14.2478 49.9392C14.0283 50.0593 13.864 50.3057 13.755 50.6786C13.6856 50.9159 13.6625 51.1529 13.6855 51.3894C13.711 51.6175 13.7907 51.8338 13.9246 52.0382C14.0524 52.2317 14.2407 52.3922 14.4892 52.5196L13.5547 54.0134C13.2165 53.8139 12.943 53.5827 12.7341 53.3196C12.5251 53.0566 12.3753 52.7648 12.2846 52.4442C12.1879 52.1126 12.1479 51.7608 12.1645 51.3886C12.1811 51.0164 12.2488 50.6269 12.3677 50.2201C12.556 49.5761 12.8171 49.0773 13.1509 48.7238C13.4847 48.3703 13.9011 48.1603 14.3999 48.0938C14.8928 48.0164 15.4834 48.0778 16.1717 48.2779L17.3189 48.6114C17.6103 48.687 17.9144 48.7662 18.2313 48.8491C18.5397 48.9296 18.8494 49.0058 19.1602 49.0778C19.4736 49.1413 19.787 49.2049 20.1003 49.2684L19.6284 50.8828C19.3915 50.8415 19.1322 50.7983 18.8503 50.7532C18.5625 50.6971 18.2728 50.6312 17.9814 50.5557L17.9183 50.7718C18.2065 50.9844 18.4586 51.2416 18.6746 51.5434C18.8822 51.8428 19.0196 52.177 19.0869 52.546C19.1457 52.9125 19.1157 53.2992 18.9968 53.706ZM17.885 52.5414C17.9321 52.3804 17.9537 52.212 17.9498 52.0361C17.9398 51.8493 17.9019 51.6636 17.836 51.4789C17.7726 51.2858 17.6745 51.101 17.5417 50.9244C17.4114 50.7394 17.2512 50.5779 17.061 50.4399L16.0466 50.1725L16.1831 49.895C16.2514 50.0711 16.2899 50.2708 16.2984 50.494C16.3009 50.7062 16.2869 50.9274 16.2565 51.1576C16.2286 51.3794 16.2049 51.6024 16.1854 51.8266C16.166 52.0508 16.1655 52.2576 16.1839 52.4468C16.2024 52.6361 16.2562 52.7989 16.3454 52.9352C16.4262 53.069 16.5728 53.1668 16.7852 53.2285C17.0402 53.3026 17.2689 53.2772 17.4714 53.1522C17.6679 53.0162 17.8058 52.8126 17.885 52.5414Z" fill="#102B32"/>
<path d="M22.6504 44.0569C22.3781 44.5922 22.0608 45.0206 21.6987 45.3422C21.3365 45.6638 20.9453 45.8865 20.5249 46.0103C20.1086 46.1263 19.673 46.1533 19.2181 46.0914C18.7553 46.0255 18.2911 45.8747 17.8254 45.6391C17.336 45.3914 16.924 45.0988 16.5896 44.7612C16.2472 44.4197 15.9941 44.0392 15.8304 43.6198C15.6666 43.2003 15.602 42.7518 15.6365 42.2744C15.671 41.7969 15.8164 41.3062 16.0728 40.8024C16.3371 40.2828 16.6503 39.882 17.0122 39.5999C17.3781 39.3099 17.773 39.1287 18.197 39.0562C18.6132 38.9797 19.0405 39.0079 19.4791 39.1407L19.1715 40.9451C18.899 40.8369 18.6479 40.7939 18.4182 40.8163C18.1845 40.8267 17.9803 40.8966 17.8053 41.0258C17.6304 41.1551 17.4848 41.3338 17.3687 41.5621C17.2565 41.7826 17.2018 41.9974 17.2045 42.2066C17.2072 42.4159 17.2654 42.6235 17.3789 42.8295C17.4886 43.0236 17.6458 43.212 17.8506 43.3948C18.0594 43.5698 18.3177 43.7351 18.6255 43.8909C19.0518 44.1066 19.4429 44.2353 19.7989 44.2769C20.1471 44.3145 20.4561 44.263 20.7262 44.1225C20.9923 43.9701 21.2115 43.7246 21.3837 43.3861C21.5399 43.0791 21.6009 42.8031 21.5668 42.5581C21.5366 42.3053 21.4488 42.0877 21.3034 41.9052C21.1542 41.7109 20.977 41.5519 20.7719 41.4283L21.8546 40.0904C22.1464 40.2777 22.3984 40.5042 22.6106 40.77C22.8149 41.0318 22.9596 41.3327 23.0446 41.6727C23.1337 42.0048 23.1493 42.3741 23.0915 42.7804C23.0298 43.1748 22.8827 43.6003 22.6504 44.0569Z" fill="#102B32"/>
<path d="M26.8117 37.2854C26.3548 37.9146 25.8524 38.2602 25.3046 38.3222C24.7548 38.372 24.1179 38.1354 23.3938 37.6124L20.9206 35.8259L20.3365 36.6302L19.1663 35.7359L19.5401 35.2211C19.7043 34.98 19.7921 34.7764 19.8034 34.6102C19.8077 34.4389 19.7208 34.2726 19.5428 34.1113L18.8836 33.4389L19.5222 32.5595L20.7803 33.4683L21.8084 32.0527L23.0665 32.9615L22.0384 34.3771L24.3933 36.0781C24.6514 36.2645 24.8855 36.341 25.0957 36.3074C25.2986 36.2688 25.491 36.1243 25.6727 35.8741C25.7662 35.7454 25.8427 35.6099 25.9023 35.4677C25.9599 35.3131 25.9964 35.165 26.0117 35.0235L27.4419 36.0566C27.3526 36.33 27.2512 36.5674 27.1377 36.7688C27.0242 36.9702 26.9156 37.1424 26.8117 37.2854Z" fill="#102B32"/>
<path d="M35.2668 28.5538C34.8429 28.8873 34.4319 29.1374 34.034 29.3043C33.6416 29.478 33.2607 29.5808 32.8914 29.6128C32.5166 29.6377 32.1588 29.5987 31.8181 29.4957C31.4719 29.3858 31.1419 29.2181 30.8283 28.9925C30.5216 28.7616 30.2313 28.4728 29.9572 28.1262L26.6602 23.957L28.1614 22.7763L31.4173 26.8935C31.6969 27.247 31.9854 27.4978 32.283 27.646C32.582 27.7818 32.8901 27.815 33.2071 27.7455C33.5242 27.676 33.8565 27.5046 34.204 27.2312C34.5584 26.9524 34.803 26.6701 34.9377 26.3843C35.0794 26.093 35.1154 25.7893 35.0457 25.4731C34.9775 25.1445 34.8036 24.8034 34.524 24.4499L31.2681 20.3327L32.7693 19.1519L36.0664 23.3211C36.779 24.2222 37.0789 25.1218 36.9662 26.0199C36.848 26.9111 36.2816 27.7557 35.2668 28.5538Z" fill="#102B32"/>
<path d="M43.4433 23.2886C43.0235 23.4975 42.6236 23.6472 42.2435 23.7378C41.8634 23.8283 41.5091 23.8616 41.1806 23.8377C40.856 23.8019 40.5651 23.7149 40.3079 23.5765C40.0547 23.4263 39.8391 23.2229 39.6611 22.9661L40.7367 21.824C40.8553 21.982 41.0215 22.1065 41.2352 22.1974C41.4528 22.2765 41.7042 22.3043 41.9892 22.2808C42.2703 22.2495 42.5811 22.149 42.9217 21.9795C43.2781 21.8021 43.5296 21.6128 43.6762 21.4115C43.8188 21.2024 43.8407 20.9991 43.7419 20.8017C43.6668 20.6516 43.5521 20.5607 43.3977 20.529C43.2433 20.4973 43.0434 20.5031 42.798 20.5464C42.5604 20.5857 42.2774 20.6526 41.9487 20.7471C41.6043 20.8298 41.2618 20.9065 40.9213 20.9773C40.5769 21.0402 40.2384 21.0657 39.9059 21.0536C39.5813 21.0376 39.2825 20.9545 39.0095 20.8042C38.7364 20.654 38.511 20.4012 38.3331 20.0458C38.1394 19.6588 38.0744 19.2718 38.138 18.885C38.2016 18.4981 38.3919 18.1272 38.7088 17.7721C39.0297 17.4052 39.4713 17.0818 40.0336 16.8019C40.5405 16.5496 41.0235 16.3979 41.4828 16.3469C41.946 16.2841 42.3675 16.3258 42.7474 16.4722C43.1234 16.6106 43.4439 16.8457 43.7088 17.1775L42.5383 18.3078C42.4078 18.1261 42.2436 17.9957 42.0457 17.9166C41.8518 17.8256 41.6381 17.7939 41.4045 17.8214C41.171 17.8488 40.9195 17.9296 40.6503 18.0636C40.3176 18.2292 40.0839 18.4146 39.9492 18.6198C39.8224 18.821 39.8044 19.0125 39.8954 19.1942C39.9705 19.3442 40.0911 19.4371 40.2574 19.4727C40.4315 19.5044 40.6413 19.4987 40.8868 19.4554C41.1362 19.4003 41.4272 19.3295 41.7598 19.2428C42.1082 19.1483 42.4507 19.0716 42.7872 19.0126C43.1277 18.9418 43.4543 18.9124 43.767 18.9245C44.0797 18.9365 44.3627 19.0177 44.6159 19.1679C44.8771 19.3141 45.0966 19.565 45.2745 19.9204C45.48 20.3311 45.5451 20.7378 45.4696 21.1404C45.3941 21.543 45.186 21.9278 44.8453 22.2947C44.5046 22.6616 44.0372 22.9929 43.4433 23.2886Z" fill="#102B32"/>
<path d="M53.1165 15.1403L51.5299 14.448L52.6283 12.9154L52.583 12.8302L50.7021 12.9856L50.8448 11.236L52.68 11.8214L52.7339 11.7558L51.9835 10.0197L53.7367 9.64776L53.7598 11.5381L53.8488 11.5734L55.2472 10.302L56.1203 11.8496L54.3464 12.4425L54.3555 12.5489L55.9686 13.4928L54.8047 14.7821L53.6562 13.2794L53.5523 13.3014L53.1165 15.1403Z" fill="#102B32"/>
</svg>
