<svg width="50" height="50" viewBox="0 0 50 50" fill="none" xmlns="http://www.w3.org/2000/svg">
<circle cx="25" cy="25" r="25" fill="#DFF39E"/>
<path fill-rule="evenodd" clip-rule="evenodd" d="M27.6444 14.9162L21.3035 18.6035L17.6078 20.735V26.5252V29.2642V35.7362L18.4996 36.2505L20.6301 37.4802V34.0888V31.0081V22.4798L22.8147 21.219L24.9992 19.9591L30.652 16.6528L33.5827 14.9522L24.9992 10L18.4988 13.7503L12 17.5006V32.501L14.9389 34.1967V19.1963L19.9682 16.2938L24.9992 13.3914L27.6452 14.917L27.6444 14.9162ZM35.0603 21.0367V30.8037L30.0293 33.7062L26.4163 35.791V32.7218V26.0232L29.3682 24.3202L31.4219 23.1355L32.3906 22.5762L35.0603 21.0367ZM31.0144 19.9411L27.9921 21.6851L23.4446 24.3087V27.7394V29.144V39.1031L25 40L26.4171 39.1824L31.5004 36.2505L38 32.5002V24.9996V17.499L36.6246 16.7059L34.6766 17.8301L33.6849 18.4016L31.0152 19.942L31.0144 19.9411Z" fill="#102B32"/>
</svg>
