<?xml version="1.0" encoding="utf-8"?>
<!-- Generator: Adobe Illustrator 25.3.0, SVG Export Plug-In . SVG Version: 6.00 Build 0)  -->
<svg version="1.1" id="Layer_1" xmlns="http://www.w3.org/2000/svg" xmlns:xlink="http://www.w3.org/1999/xlink" x="0px" y="0px"
	 viewBox="0 0 186.5 140.5" style="enable-background:new 0 0 186.5 140.5;" xml:space="preserve">
<style type="text/css">
	.st0{fill:url(#SVGID_1_);}
	.st1{fill:url(#SVGID_2_);}
	.st2{fill:url(#SVGID_3_);}
	.st3{fill:url(#SVGID_4_);}
	.st4{fill:url(#SVGID_5_);}
	.st5{fill:url(#SVGID_6_);}
	.st6{fill:url(#SVGID_7_);}
	.st7{fill:url(#SVGID_8_);}
	.st8{fill:url(#SVGID_9_);}
	.st9{fill:url(#SVGID_10_);}
	.st10{fill:url(#SVGID_11_);}
	.st11{fill:url(#SVGID_12_);}
	.st12{fill:url(#SVGID_13_);}
	.st13{fill:url(#SVGID_14_);}
	.st14{fill:url(#SVGID_15_);}
	.st15{fill:url(#SVGID_16_);}
	.st16{fill:url(#SVGID_17_);}
	.st17{fill:url(#SVGID_18_);}
	.st18{fill:url(#SVGID_19_);}
	.st19{fill:url(#SVGID_20_);}
	.st20{fill:url(#SVGID_21_);}
	.st21{fill:url(#SVGID_22_);}
</style>
<g>
	<linearGradient id="SVGID_1_" gradientUnits="userSpaceOnUse" x1="46.0371" y1="119.7179" x2="74.0301" y2="119.7179">
		<stop  offset="0" style="stop-color:#9A6F2B"/>
		<stop  offset="0.5863" style="stop-color:#D3B443"/>
		<stop  offset="1" style="stop-color:#B48C34"/>
	</linearGradient>
	<path class="st0" d="M74,126.5c-1.6-7.2-10.2-15.1-16-19.2c-0.4,2.9,1,13.3,9.7,17.6c-8.5-1.1-19.8,3.3-21.7,4.6
		C55.9,133.7,68.8,133.3,74,126.5z"/>
	<linearGradient id="SVGID_2_" gradientUnits="userSpaceOnUse" x1="32.1489" y1="112.9635" x2="59.1727" y2="112.9635">
		<stop  offset="0" style="stop-color:#9A6F2B"/>
		<stop  offset="0.5863" style="stop-color:#D3B443"/>
		<stop  offset="1" style="stop-color:#B48C34"/>
	</linearGradient>
	<path class="st1" d="M59.2,121.7c-0.2-6.9-7.1-16.2-11.7-20.9c-0.9,2.9-1.6,12.7,6.4,18.5c-8.8-2.9-19.8-0.5-21.7,0.3
		C40.8,125.6,53.2,127.2,59.2,121.7z"/>
	<linearGradient id="SVGID_3_" gradientUnits="userSpaceOnUse" x1="20.1752" y1="103.9882" x2="45.2877" y2="103.9882">
		<stop  offset="0" style="stop-color:#9A6F2B"/>
		<stop  offset="0.5863" style="stop-color:#D3B443"/>
		<stop  offset="1" style="stop-color:#B48C34"/>
	</linearGradient>
	<path class="st2" d="M45.1,114.2c1.1-6.5-3.5-16.9-6.9-21.9c-2.6,5-2.7,13.3,2.7,18.9c-8.2-4.7-18.6-4.6-20.8-4.3
		C27.4,114.6,38.8,118,45.1,114.2z"/>
	<linearGradient id="SVGID_4_" gradientUnits="userSpaceOnUse" x1="11.2261" y1="93.1952" x2="34.1173" y2="93.1952">
		<stop  offset="0" style="stop-color:#9A6F2B"/>
		<stop  offset="0.5863" style="stop-color:#D3B443"/>
		<stop  offset="1" style="stop-color:#B48C34"/>
	</linearGradient>
	<path class="st3" d="M33.1,103.9c2.3-5.7,0.3-16.4-2.2-22c-2,2.7-5.9,10.7-0.8,18.6c-6.7-6.1-15.5-8.1-18.8-8.3
		C16.9,101.6,27,106.1,33.1,103.9z"/>
	<linearGradient id="SVGID_5_" gradientUnits="userSpaceOnUse" x1="6.0225" y1="81.5117" x2="26.243" y2="81.5117">
		<stop  offset="0" style="stop-color:#9A6F2B"/>
		<stop  offset="0.5863" style="stop-color:#D3B443"/>
		<stop  offset="1" style="stop-color:#B48C34"/>
	</linearGradient>
	<path class="st4" d="M23.7,91.7c3.4-5,2.7-15.9,1.8-20.5c-3.8,3-6.8,8.8-5,14.9c-3.7-5-11.8-9-14.5-9.9
		C9.2,86.7,18.2,92.5,23.7,91.7z"/>
	<linearGradient id="SVGID_6_" gradientUnits="userSpaceOnUse" x1="3.6241" y1="67.8996" x2="23.8801" y2="67.8996">
		<stop  offset="0" style="stop-color:#9A6F2B"/>
		<stop  offset="0.5863" style="stop-color:#D3B443"/>
		<stop  offset="1" style="stop-color:#B48C34"/>
	</linearGradient>
	<path class="st5" d="M16.8,77.3c3.3-2.9,7-11.8,7-18.9c-5.4,2.9-9,8.4-8,15.6c-2.3-5.7-5.9-11.2-12.3-15
		C4.3,69,11.3,76.8,16.8,77.3z"/>
	<linearGradient id="SVGID_7_" gradientUnits="userSpaceOnUse" x1="4.7495" y1="52.7372" x2="23.9886" y2="52.7372">
		<stop  offset="0" style="stop-color:#9A6F2B"/>
		<stop  offset="0.5863" style="stop-color:#D3B443"/>
		<stop  offset="1" style="stop-color:#B48C34"/>
	</linearGradient>
	<path class="st6" d="M13.9,62.3c3.6-1.9,9-9.4,10-16.8c-5.7,2.3-9.6,6.8-10.2,13.9c-0.9-5.7-2.9-11.1-8.9-16.1
		C4,52.3,9.2,60.7,13.9,62.3z"/>
	<linearGradient id="SVGID_8_" gradientUnits="userSpaceOnUse" x1="7.5663" y1="37.4452" x2="25.8556" y2="37.4452">
		<stop  offset="0" style="stop-color:#9A6F2B"/>
		<stop  offset="0.5863" style="stop-color:#D3B443"/>
		<stop  offset="1" style="stop-color:#B48C34"/>
	</linearGradient>
	<path class="st7" d="M14.1,46.9c3.6-1.1,9.9-7.3,11.7-14.7c-5.7,1.7-9.8,5.3-11.4,12.2C14.4,37.9,12.8,33,8,28
		C6.1,36.8,10.5,45,14.1,46.9z"/>
	<linearGradient id="SVGID_9_" gradientUnits="userSpaceOnUse" x1="11.7523" y1="22.5586" x2="29.1318" y2="22.5586">
		<stop  offset="0" style="stop-color:#9A6F2B"/>
		<stop  offset="0.5863" style="stop-color:#D3B443"/>
		<stop  offset="1" style="stop-color:#B48C34"/>
	</linearGradient>
	<path class="st8" d="M16.6,31.7c3.1-0.5,10-5.3,12.5-12.7c-5.7,1.2-9.6,4.1-12.1,10.7c0.8-7.2-0.7-11.5-4.3-16.2
		C10,21.6,13.6,29.7,16.6,31.7z"/>
	<linearGradient id="SVGID_10_" gradientUnits="userSpaceOnUse" x1="62.4514" y1="124.8304" x2="90.4704" y2="124.8304">
		<stop  offset="0" style="stop-color:#9A6F2B"/>
		<stop  offset="0.5863" style="stop-color:#D3B443"/>
		<stop  offset="1" style="stop-color:#B48C34"/>
	</linearGradient>
	<path class="st9" d="M70.4,111.9c0.2,2.8,3.7,13.3,12.9,16.1c-9.2,0.6-19.4,7.4-20.9,8.8c11.7,2.5,24.5-0.7,28-8.3
		C87,121.2,77.7,115.4,70.4,111.9z"/>
	<linearGradient id="SVGID_11_" gradientUnits="userSpaceOnUse" x1="18.9482" y1="11.1856" x2="26.6558" y2="11.1856">
		<stop  offset="0" style="stop-color:#9A6F2B"/>
		<stop  offset="0.5863" style="stop-color:#D3B443"/>
		<stop  offset="1" style="stop-color:#B48C34"/>
	</linearGradient>
	<path class="st10" d="M20.2,19.6c5.7-2.5,7.1-10.6,6.2-16.8C20.8,6.4,16.8,14.3,20.2,19.6z"/>
</g>
<g>
	<linearGradient id="SVGID_12_" gradientUnits="userSpaceOnUse" x1="112.4267" y1="119.7179" x2="140.4196" y2="119.7179">
		<stop  offset="0" style="stop-color:#9A6F2B"/>
		<stop  offset="0.5863" style="stop-color:#D3B443"/>
		<stop  offset="1" style="stop-color:#B48C34"/>
	</linearGradient>
	<path class="st11" d="M112.4,126.5c1.6-7.2,10.2-15.1,16-19.2c0.4,2.9-1,13.3-9.7,17.6c8.5-1.1,19.8,3.3,21.7,4.6
		C130.6,133.7,117.7,133.3,112.4,126.5z"/>
	<linearGradient id="SVGID_13_" gradientUnits="userSpaceOnUse" x1="127.2839" y1="112.9635" x2="154.3077" y2="112.9635">
		<stop  offset="0" style="stop-color:#9A6F2B"/>
		<stop  offset="0.5863" style="stop-color:#D3B443"/>
		<stop  offset="1" style="stop-color:#B48C34"/>
	</linearGradient>
	<path class="st12" d="M127.3,121.7c0.2-6.9,7.1-16.2,11.7-20.9c0.9,2.9,1.6,12.7-6.4,18.5c8.8-2.9,19.8-0.5,21.7,0.3
		C145.6,125.6,133.3,127.2,127.3,121.7z"/>
	<linearGradient id="SVGID_14_" gradientUnits="userSpaceOnUse" x1="141.1689" y1="103.9882" x2="166.2815" y2="103.9882">
		<stop  offset="0" style="stop-color:#9A6F2B"/>
		<stop  offset="0.5863" style="stop-color:#D3B443"/>
		<stop  offset="1" style="stop-color:#B48C34"/>
	</linearGradient>
	<path class="st13" d="M141.3,114.2c-1.1-6.5,3.5-16.9,6.9-21.9c2.6,5,2.7,13.3-2.7,18.9c8.2-4.7,18.6-4.6,20.8-4.3
		C159,114.6,147.7,118,141.3,114.2z"/>
	<linearGradient id="SVGID_15_" gradientUnits="userSpaceOnUse" x1="152.3393" y1="93.1952" x2="175.2306" y2="93.1952">
		<stop  offset="0" style="stop-color:#9A6F2B"/>
		<stop  offset="0.5863" style="stop-color:#D3B443"/>
		<stop  offset="1" style="stop-color:#B48C34"/>
	</linearGradient>
	<path class="st14" d="M153.4,103.9c-2.3-5.7-0.3-16.4,2.2-22c2,2.7,5.9,10.7,0.8,18.6c6.7-6.1,15.5-8.1,18.8-8.3
		C169.6,101.6,159.4,106.1,153.4,103.9z"/>
	<linearGradient id="SVGID_16_" gradientUnits="userSpaceOnUse" x1="160.2137" y1="81.5117" x2="180.4343" y2="81.5117">
		<stop  offset="0" style="stop-color:#9A6F2B"/>
		<stop  offset="0.5863" style="stop-color:#D3B443"/>
		<stop  offset="1" style="stop-color:#B48C34"/>
	</linearGradient>
	<path class="st15" d="M162.7,91.7c-3.4-5-2.7-15.9-1.8-20.5c3.8,3,6.8,8.8,5,14.9c3.7-5,11.8-9,14.5-9.9
		C177.3,86.7,168.3,92.5,162.7,91.7z"/>
	<linearGradient id="SVGID_17_" gradientUnits="userSpaceOnUse" x1="162.5767" y1="67.8996" x2="182.8325" y2="67.8996">
		<stop  offset="0" style="stop-color:#9A6F2B"/>
		<stop  offset="0.5863" style="stop-color:#D3B443"/>
		<stop  offset="1" style="stop-color:#B48C34"/>
	</linearGradient>
	<path class="st16" d="M169.6,77.3c-3.3-2.9-7-11.8-7-18.9c5.3,2.9,9,8.4,8,15.6c2.3-5.7,5.9-11.2,12.2-15
		C182.2,69,175.2,76.8,169.6,77.3z"/>
	<linearGradient id="SVGID_18_" gradientUnits="userSpaceOnUse" x1="162.4681" y1="52.7372" x2="181.7072" y2="52.7372">
		<stop  offset="0" style="stop-color:#9A6F2B"/>
		<stop  offset="0.5863" style="stop-color:#D3B443"/>
		<stop  offset="1" style="stop-color:#B48C34"/>
	</linearGradient>
	<path class="st17" d="M172.5,62.3c-3.6-1.9-9-9.4-10-16.8c5.7,2.3,9.6,6.8,10.2,13.9c0.9-5.7,2.9-11.1,8.9-16.1
		C182.5,52.3,177.2,60.7,172.5,62.3z"/>
	<linearGradient id="SVGID_19_" gradientUnits="userSpaceOnUse" x1="160.6012" y1="37.4452" x2="178.8903" y2="37.4452">
		<stop  offset="0" style="stop-color:#9A6F2B"/>
		<stop  offset="0.5863" style="stop-color:#D3B443"/>
		<stop  offset="1" style="stop-color:#B48C34"/>
	</linearGradient>
	<path class="st18" d="M172.3,46.9c-3.6-1.1-9.9-7.3-11.7-14.7c5.7,1.7,9.8,5.3,11.4,12.2c0-6.5,1.6-11.4,6.4-16.4
		C180.4,36.8,176,45,172.3,46.9z"/>
	<linearGradient id="SVGID_20_" gradientUnits="userSpaceOnUse" x1="157.3248" y1="22.5586" x2="174.7044" y2="22.5586">
		<stop  offset="0" style="stop-color:#9A6F2B"/>
		<stop  offset="0.5863" style="stop-color:#D3B443"/>
		<stop  offset="1" style="stop-color:#B48C34"/>
	</linearGradient>
	<path class="st19" d="M169.9,31.7c-3.1-0.5-10-5.3-12.5-12.7c5.7,1.2,9.6,4.1,12.1,10.7c-0.8-7.2,0.7-11.5,4.3-16.2
		C176.5,21.6,172.9,29.7,169.9,31.7z"/>
	<linearGradient id="SVGID_21_" gradientUnits="userSpaceOnUse" x1="95.9863" y1="124.8304" x2="124.0052" y2="124.8304">
		<stop  offset="0" style="stop-color:#9A6F2B"/>
		<stop  offset="0.5863" style="stop-color:#D3B443"/>
		<stop  offset="1" style="stop-color:#B48C34"/>
	</linearGradient>
	<path class="st20" d="M116.1,111.9c-0.2,2.8-3.7,13.3-12.9,16.1c9.2,0.6,19.4,7.4,20.9,8.8c-11.7,2.5-24.5-0.7-28-8.3
		C99.4,121.2,108.8,115.4,116.1,111.9z"/>
	<linearGradient id="SVGID_22_" gradientUnits="userSpaceOnUse" x1="159.8009" y1="11.1856" x2="167.5085" y2="11.1856">
		<stop  offset="0" style="stop-color:#9A6F2B"/>
		<stop  offset="0.5863" style="stop-color:#D3B443"/>
		<stop  offset="1" style="stop-color:#B48C34"/>
	</linearGradient>
	<path class="st21" d="M166.3,19.6c-5.7-2.5-7.1-10.6-6.2-16.8C165.7,6.4,169.6,14.3,166.3,19.6z"/>
</g>
</svg>
