<?xml version="1.0" encoding="utf-8"?>
<!-- Generator: Adobe Illustrator 25.3.0, SVG Export Plug-In . SVG Version: 6.00 Build 0)  -->
<svg version="1.1" id="Layer_1" xmlns="http://www.w3.org/2000/svg" xmlns:xlink="http://www.w3.org/1999/xlink" x="0px" y="0px"
	 viewBox="0 0 1489.3 1306.2" style="enable-background:new 0 0 1489.3 1306.2;" xml:space="preserve">
<style type="text/css">
	.st0{clip-path:url(#SVGID_2_);fill-rule:evenodd;clip-rule:evenodd;fill:#936031;}
	.st1{clip-path:url(#SVGID_2_);fill-rule:evenodd;clip-rule:evenodd;fill:#956232;}
	.st2{clip-path:url(#SVGID_2_);fill-rule:evenodd;clip-rule:evenodd;fill:#976533;}
	.st3{clip-path:url(#SVGID_2_);fill-rule:evenodd;clip-rule:evenodd;fill:#996734;}
	.st4{clip-path:url(#SVGID_2_);fill-rule:evenodd;clip-rule:evenodd;fill:#9B6A36;}
	.st5{clip-path:url(#SVGID_2_);fill-rule:evenodd;clip-rule:evenodd;fill:#9D6C37;}
	.st6{clip-path:url(#SVGID_2_);fill-rule:evenodd;clip-rule:evenodd;fill:#9F6F38;}
	.st7{clip-path:url(#SVGID_2_);fill-rule:evenodd;clip-rule:evenodd;fill:#A27139;}
	.st8{clip-path:url(#SVGID_2_);fill-rule:evenodd;clip-rule:evenodd;fill:#A4743A;}
	.st9{clip-path:url(#SVGID_2_);fill-rule:evenodd;clip-rule:evenodd;fill:#A6763B;}
	.st10{clip-path:url(#SVGID_2_);fill-rule:evenodd;clip-rule:evenodd;fill:#A8793D;}
	.st11{clip-path:url(#SVGID_2_);fill-rule:evenodd;clip-rule:evenodd;fill:#AA7B3E;}
	.st12{clip-path:url(#SVGID_2_);fill-rule:evenodd;clip-rule:evenodd;fill:#AC7E3F;}
	.st13{clip-path:url(#SVGID_2_);fill-rule:evenodd;clip-rule:evenodd;fill:#AE8040;}
	.st14{clip-path:url(#SVGID_2_);fill-rule:evenodd;clip-rule:evenodd;fill:#B08341;}
	.st15{clip-path:url(#SVGID_2_);fill-rule:evenodd;clip-rule:evenodd;fill:#B28542;}
	.st16{clip-path:url(#SVGID_2_);fill-rule:evenodd;clip-rule:evenodd;fill:#B48843;}
	.st17{clip-path:url(#SVGID_2_);fill-rule:evenodd;clip-rule:evenodd;fill:#B68A45;}
	.st18{clip-path:url(#SVGID_2_);fill-rule:evenodd;clip-rule:evenodd;fill:#B88D46;}
	.st19{clip-path:url(#SVGID_2_);fill-rule:evenodd;clip-rule:evenodd;fill:#BA8F47;}
	.st20{clip-path:url(#SVGID_2_);fill-rule:evenodd;clip-rule:evenodd;fill:#BD9248;}
	.st21{clip-path:url(#SVGID_2_);fill-rule:evenodd;clip-rule:evenodd;fill:#BF9449;}
	.st22{clip-path:url(#SVGID_2_);fill-rule:evenodd;clip-rule:evenodd;fill:#C1974A;}
	.st23{clip-path:url(#SVGID_2_);fill-rule:evenodd;clip-rule:evenodd;fill:#C3994C;}
	.st24{clip-path:url(#SVGID_2_);fill-rule:evenodd;clip-rule:evenodd;fill:#C59C4D;}
	.st25{clip-path:url(#SVGID_2_);fill-rule:evenodd;clip-rule:evenodd;fill:#C79E4E;}
	.st26{clip-path:url(#SVGID_2_);fill-rule:evenodd;clip-rule:evenodd;fill:#C9A14F;}
	.st27{clip-path:url(#SVGID_2_);fill-rule:evenodd;clip-rule:evenodd;fill:#CBA350;}
	.st28{clip-path:url(#SVGID_2_);fill-rule:evenodd;clip-rule:evenodd;fill:#CDA651;}
	.st29{clip-path:url(#SVGID_2_);fill-rule:evenodd;clip-rule:evenodd;fill:#CFA852;}
	.st30{clip-path:url(#SVGID_2_);fill-rule:evenodd;clip-rule:evenodd;fill:#D1AB54;}
	.st31{clip-path:url(#SVGID_2_);fill-rule:evenodd;clip-rule:evenodd;fill:#D3AD55;}
	.st32{clip-path:url(#SVGID_2_);fill-rule:evenodd;clip-rule:evenodd;fill:#D5B056;}
	.st33{clip-path:url(#SVGID_2_);fill-rule:evenodd;clip-rule:evenodd;fill:#D8B257;}
	.st34{clip-path:url(#SVGID_2_);fill-rule:evenodd;clip-rule:evenodd;fill:#DAB558;}
	.st35{clip-path:url(#SVGID_2_);fill-rule:evenodd;clip-rule:evenodd;fill:#DCB759;}
	.st36{clip-path:url(#SVGID_2_);fill-rule:evenodd;clip-rule:evenodd;fill:#DEBA5B;}
	.st37{clip-path:url(#SVGID_2_);fill-rule:evenodd;clip-rule:evenodd;fill:#E0BC5C;}
	.st38{clip-path:url(#SVGID_2_);fill-rule:evenodd;clip-rule:evenodd;fill:#E2BF5D;}
	.st39{clip-path:url(#SVGID_2_);fill-rule:evenodd;clip-rule:evenodd;fill:#E4C15E;}
	.st40{clip-path:url(#SVGID_2_);fill-rule:evenodd;clip-rule:evenodd;fill:#E6C45F;}
	.st41{clip-path:url(#SVGID_2_);fill-rule:evenodd;clip-rule:evenodd;fill:#E8C660;}
	.st42{clip-path:url(#SVGID_2_);fill-rule:evenodd;clip-rule:evenodd;fill:#EAC961;}
	.st43{clip-path:url(#SVGID_2_);fill-rule:evenodd;clip-rule:evenodd;fill:#ECCB63;}
	.st44{clip-path:url(#SVGID_2_);fill-rule:evenodd;clip-rule:evenodd;fill:#ECCA62;}
	.st45{clip-path:url(#SVGID_2_);fill-rule:evenodd;clip-rule:evenodd;fill:#EAC861;}
	.st46{clip-path:url(#SVGID_2_);fill-rule:evenodd;clip-rule:evenodd;fill:#E5C35E;}
	.st47{clip-path:url(#SVGID_2_);fill-rule:evenodd;clip-rule:evenodd;fill:#E3C15D;}
	.st48{clip-path:url(#SVGID_2_);fill-rule:evenodd;clip-rule:evenodd;fill:#E1BF5C;}
	.st49{clip-path:url(#SVGID_2_);fill-rule:evenodd;clip-rule:evenodd;fill:#DFBC5B;}
	.st50{clip-path:url(#SVGID_2_);fill-rule:evenodd;clip-rule:evenodd;fill:#DDBA59;}
	.st51{clip-path:url(#SVGID_2_);fill-rule:evenodd;clip-rule:evenodd;fill:#DBB758;}
	.st52{clip-path:url(#SVGID_2_);fill-rule:evenodd;clip-rule:evenodd;fill:#D9B557;}
	.st53{clip-path:url(#SVGID_2_);fill-rule:evenodd;clip-rule:evenodd;fill:#D7B356;}
	.st54{clip-path:url(#SVGID_2_);fill-rule:evenodd;clip-rule:evenodd;fill:#D5B054;}
	.st55{clip-path:url(#SVGID_2_);fill-rule:evenodd;clip-rule:evenodd;fill:#D3AE53;}
	.st56{clip-path:url(#SVGID_2_);fill-rule:evenodd;clip-rule:evenodd;fill:#D1AC52;}
	.st57{clip-path:url(#SVGID_2_);fill-rule:evenodd;clip-rule:evenodd;fill:#CFA951;}
	.st58{clip-path:url(#SVGID_2_);fill-rule:evenodd;clip-rule:evenodd;fill:#CDA74F;}
	.st59{clip-path:url(#SVGID_2_);fill-rule:evenodd;clip-rule:evenodd;fill:#CBA44E;}
	.st60{clip-path:url(#SVGID_2_);fill-rule:evenodd;clip-rule:evenodd;fill:#C9A24D;}
	.st61{clip-path:url(#SVGID_2_);fill-rule:evenodd;clip-rule:evenodd;fill:#C7A04C;}
	.st62{clip-path:url(#SVGID_2_);fill-rule:evenodd;clip-rule:evenodd;fill:#C59D4A;}
	.st63{clip-path:url(#SVGID_2_);fill-rule:evenodd;clip-rule:evenodd;fill:#C29B49;}
	.st64{clip-path:url(#SVGID_2_);fill-rule:evenodd;clip-rule:evenodd;fill:#C09948;}
	.st65{clip-path:url(#SVGID_2_);fill-rule:evenodd;clip-rule:evenodd;fill:#BE9647;}
	.st66{clip-path:url(#SVGID_2_);fill-rule:evenodd;clip-rule:evenodd;fill:#BC9445;}
	.st67{clip-path:url(#SVGID_2_);fill-rule:evenodd;clip-rule:evenodd;fill:#BA9144;}
	.st68{clip-path:url(#SVGID_2_);fill-rule:evenodd;clip-rule:evenodd;fill:#B88F43;}
	.st69{clip-path:url(#SVGID_2_);fill-rule:evenodd;clip-rule:evenodd;fill:#B68D42;}
	.st70{clip-path:url(#SVGID_2_);fill-rule:evenodd;clip-rule:evenodd;fill:#B48A40;}
	.st71{clip-path:url(#SVGID_2_);fill-rule:evenodd;clip-rule:evenodd;fill:#B2883F;}
	.st72{clip-path:url(#SVGID_2_);fill-rule:evenodd;clip-rule:evenodd;fill:#B0863E;}
	.st73{clip-path:url(#SVGID_2_);fill-rule:evenodd;clip-rule:evenodd;fill:#AE833D;}
	.st74{clip-path:url(#SVGID_2_);fill-rule:evenodd;clip-rule:evenodd;fill:#AC813B;}
	.st75{clip-path:url(#SVGID_2_);fill-rule:evenodd;clip-rule:evenodd;fill:#AA7E3A;}
	.st76{clip-path:url(#SVGID_2_);fill-rule:evenodd;clip-rule:evenodd;fill:#A87C39;}
	.st77{clip-path:url(#SVGID_2_);fill-rule:evenodd;clip-rule:evenodd;fill:#A67A38;}
	.st78{clip-path:url(#SVGID_2_);fill-rule:evenodd;clip-rule:evenodd;fill:#A47736;}
	.st79{clip-path:url(#SVGID_2_);fill-rule:evenodd;clip-rule:evenodd;fill:#A27535;}
	.st80{clip-path:url(#SVGID_2_);fill-rule:evenodd;clip-rule:evenodd;fill:#9F7234;}
	.st81{clip-path:url(#SVGID_2_);fill-rule:evenodd;clip-rule:evenodd;fill:#9D7033;}
	.st82{clip-path:url(#SVGID_2_);fill-rule:evenodd;clip-rule:evenodd;fill:#9B6E31;}
	.st83{clip-path:url(#SVGID_2_);fill-rule:evenodd;clip-rule:evenodd;fill:#996B30;}
	.st84{clip-path:url(#SVGID_2_);fill-rule:evenodd;clip-rule:evenodd;fill:#9A6D31;}
	.st85{clip-path:url(#SVGID_2_);fill-rule:evenodd;clip-rule:evenodd;fill:#9C6E32;}
	.st86{clip-path:url(#SVGID_2_);fill-rule:evenodd;clip-rule:evenodd;fill:#9F7233;}
	.st87{clip-path:url(#SVGID_2_);fill-rule:evenodd;clip-rule:evenodd;fill:#A17434;}
	.st88{clip-path:url(#SVGID_2_);fill-rule:evenodd;clip-rule:evenodd;fill:#A27635;}
	.st89{clip-path:url(#SVGID_2_);fill-rule:evenodd;clip-rule:evenodd;fill:#A57937;}
	.st90{clip-path:url(#SVGID_2_);fill-rule:evenodd;clip-rule:evenodd;fill:#A77B38;}
	.st91{clip-path:url(#SVGID_2_);fill-rule:evenodd;clip-rule:evenodd;fill:#A87D39;}
	.st92{clip-path:url(#SVGID_2_);fill-rule:evenodd;clip-rule:evenodd;fill:#AA7F3A;}
	.st93{clip-path:url(#SVGID_2_);fill-rule:evenodd;clip-rule:evenodd;fill:#AB803B;}
	.st94{clip-path:url(#SVGID_2_);fill-rule:evenodd;clip-rule:evenodd;fill:#AD823C;}
	.st95{clip-path:url(#SVGID_2_);fill-rule:evenodd;clip-rule:evenodd;fill:#AE843D;}
	.st96{clip-path:url(#SVGID_2_);fill-rule:evenodd;clip-rule:evenodd;fill:#B2883E;}
	.st97{clip-path:url(#SVGID_2_);fill-rule:evenodd;clip-rule:evenodd;fill:#B3893F;}
	.st98{clip-path:url(#SVGID_2_);fill-rule:evenodd;clip-rule:evenodd;fill:#B58B40;}
	.st99{clip-path:url(#SVGID_2_);fill-rule:evenodd;clip-rule:evenodd;fill:#B68D41;}
	.st100{clip-path:url(#SVGID_2_);fill-rule:evenodd;clip-rule:evenodd;fill:#B88F42;}
	.st101{clip-path:url(#SVGID_2_);fill-rule:evenodd;clip-rule:evenodd;fill:#B99143;}
	.st102{clip-path:url(#SVGID_2_);fill-rule:evenodd;clip-rule:evenodd;fill:#BB9244;}
	.st103{clip-path:url(#SVGID_2_);fill-rule:evenodd;clip-rule:evenodd;fill:#BE9646;}
	.st104{clip-path:url(#SVGID_2_);fill-rule:evenodd;clip-rule:evenodd;fill:#C09847;}
	.st105{clip-path:url(#SVGID_2_);fill-rule:evenodd;clip-rule:evenodd;fill:#C19A48;}
	.st106{clip-path:url(#SVGID_2_);fill-rule:evenodd;clip-rule:evenodd;fill:#C39B48;}
	.st107{clip-path:url(#SVGID_2_);fill-rule:evenodd;clip-rule:evenodd;fill:#C49D49;}
	.st108{clip-path:url(#SVGID_2_);fill-rule:evenodd;clip-rule:evenodd;fill:#C69F4A;}
	.st109{clip-path:url(#SVGID_2_);fill-rule:evenodd;clip-rule:evenodd;fill:#C7A14B;}
	.st110{clip-path:url(#SVGID_2_);fill-rule:evenodd;clip-rule:evenodd;fill:#C9A34C;}
	.st111{clip-path:url(#SVGID_2_);fill-rule:evenodd;clip-rule:evenodd;fill:#CAA44D;}
	.st112{clip-path:url(#SVGID_2_);fill-rule:evenodd;clip-rule:evenodd;fill:#CCA64E;}
	.st113{clip-path:url(#SVGID_2_);fill-rule:evenodd;clip-rule:evenodd;fill:#CDA84F;}
	.st114{clip-path:url(#SVGID_2_);fill-rule:evenodd;clip-rule:evenodd;fill:#CFAA50;}
	.st115{clip-path:url(#SVGID_2_);fill-rule:evenodd;clip-rule:evenodd;fill:#D1AC51;}
	.st116{clip-path:url(#SVGID_2_);fill-rule:evenodd;clip-rule:evenodd;fill:#D2AD51;}
	.st117{clip-path:url(#SVGID_2_);fill-rule:evenodd;clip-rule:evenodd;fill:#D4AF52;}
	.st118{clip-path:url(#SVGID_2_);fill-rule:evenodd;clip-rule:evenodd;fill:#D5B153;}
	.st119{clip-path:url(#SVGID_2_);fill-rule:evenodd;clip-rule:evenodd;fill:#D7B354;}
	.st120{clip-path:url(#SVGID_2_);fill-rule:evenodd;clip-rule:evenodd;fill:#D8B555;}
	.st121{clip-path:url(#SVGID_2_);fill-rule:evenodd;clip-rule:evenodd;fill:#DAB656;}
	.st122{clip-path:url(#SVGID_2_);fill-rule:evenodd;clip-rule:evenodd;fill:#DBB857;}
	.st123{clip-path:url(#SVGID_2_);fill-rule:evenodd;clip-rule:evenodd;fill:#DDBA58;}
	.st124{clip-path:url(#SVGID_2_);fill-rule:evenodd;clip-rule:evenodd;fill:#DFBC59;}
	.st125{clip-path:url(#SVGID_2_);fill-rule:evenodd;clip-rule:evenodd;fill:#E0BE5A;}
	.st126{clip-path:url(#SVGID_2_);fill-rule:evenodd;clip-rule:evenodd;fill:#E2BF5B;}
	.st127{clip-path:url(#SVGID_2_);fill-rule:evenodd;clip-rule:evenodd;fill:#E3C15C;}
	.st128{clip-path:url(#SVGID_2_);fill-rule:evenodd;clip-rule:evenodd;fill:#E5C35C;}
	.st129{clip-path:url(#SVGID_2_);fill-rule:evenodd;clip-rule:evenodd;fill:#E6C55D;}
	.st130{clip-path:url(#SVGID_2_);fill-rule:evenodd;clip-rule:evenodd;fill:#E8C75E;}
	.st131{clip-path:url(#SVGID_2_);fill-rule:evenodd;clip-rule:evenodd;fill:#E9C85F;}
	.st132{clip-path:url(#SVGID_2_);fill-rule:evenodd;clip-rule:evenodd;fill:#EBCA60;}
	.st133{clip-path:url(#SVGID_2_);fill-rule:evenodd;clip-rule:evenodd;fill:#EDCC61;}
	.st134{clip-path:url(#SVGID_2_);fill-rule:evenodd;clip-rule:evenodd;fill:#EECE62;}
	.st135{clip-path:url(#SVGID_2_);fill-rule:evenodd;clip-rule:evenodd;fill:#F0D063;}
	.st136{clip-path:url(#SVGID_2_);fill-rule:evenodd;clip-rule:evenodd;fill:#EFCF62;}
	.st137{clip-path:url(#SVGID_2_);fill-rule:evenodd;clip-rule:evenodd;fill:#EECE61;}
	.st138{clip-path:url(#SVGID_2_);fill-rule:evenodd;clip-rule:evenodd;fill:#EDCC60;}
	.st139{clip-path:url(#SVGID_2_);fill-rule:evenodd;clip-rule:evenodd;fill:#ECCB5F;}
	.st140{clip-path:url(#SVGID_2_);fill-rule:evenodd;clip-rule:evenodd;fill:#EBCA5E;}
	.st141{clip-path:url(#SVGID_2_);fill-rule:evenodd;clip-rule:evenodd;fill:#EAC85D;}
	.st142{clip-path:url(#SVGID_2_);fill-rule:evenodd;clip-rule:evenodd;fill:#E9C75C;}
	.st143{clip-path:url(#SVGID_2_);fill-rule:evenodd;clip-rule:evenodd;fill:#E8C55B;}
	.st144{clip-path:url(#SVGID_2_);fill-rule:evenodd;clip-rule:evenodd;fill:#E7C45A;}
	.st145{clip-path:url(#SVGID_2_);fill-rule:evenodd;clip-rule:evenodd;fill:#E6C359;}
	.st146{clip-path:url(#SVGID_2_);fill-rule:evenodd;clip-rule:evenodd;fill:#E5C158;}
	.st147{clip-path:url(#SVGID_2_);fill-rule:evenodd;clip-rule:evenodd;fill:#E4C057;}
	.st148{clip-path:url(#SVGID_2_);fill-rule:evenodd;clip-rule:evenodd;fill:#E3BF56;}
	.st149{clip-path:url(#SVGID_2_);fill-rule:evenodd;clip-rule:evenodd;fill:#E2BD55;}
	.st150{clip-path:url(#SVGID_2_);fill-rule:evenodd;clip-rule:evenodd;fill:#E1BC54;}
	.st151{clip-path:url(#SVGID_2_);fill-rule:evenodd;clip-rule:evenodd;fill:#E0BB53;}
	.st152{clip-path:url(#SVGID_2_);fill-rule:evenodd;clip-rule:evenodd;fill:#DFB952;}
	.st153{clip-path:url(#SVGID_2_);fill-rule:evenodd;clip-rule:evenodd;fill:#DEB851;}
	.st154{clip-path:url(#SVGID_2_);fill-rule:evenodd;clip-rule:evenodd;fill:#DCB650;}
	.st155{clip-path:url(#SVGID_2_);fill-rule:evenodd;clip-rule:evenodd;fill:#DBB54F;}
	.st156{clip-path:url(#SVGID_2_);fill-rule:evenodd;clip-rule:evenodd;fill:#DAB44E;}
	.st157{clip-path:url(#SVGID_2_);fill-rule:evenodd;clip-rule:evenodd;fill:#D9B24D;}
	.st158{clip-path:url(#SVGID_2_);fill-rule:evenodd;clip-rule:evenodd;fill:#D8B14C;}
	.st159{clip-path:url(#SVGID_2_);fill-rule:evenodd;clip-rule:evenodd;fill:#D7B04B;}
	.st160{clip-path:url(#SVGID_2_);fill-rule:evenodd;clip-rule:evenodd;fill:#D6AE4A;}
	.st161{clip-path:url(#SVGID_2_);fill-rule:evenodd;clip-rule:evenodd;fill:#D5AD49;}
	.st162{clip-path:url(#SVGID_2_);fill-rule:evenodd;clip-rule:evenodd;fill:#D4AC48;}
	.st163{clip-path:url(#SVGID_2_);fill-rule:evenodd;clip-rule:evenodd;fill:#D3AA47;}
	.st164{clip-path:url(#SVGID_2_);fill-rule:evenodd;clip-rule:evenodd;fill:#D2A946;}
	.st165{clip-path:url(#SVGID_2_);fill-rule:evenodd;clip-rule:evenodd;fill:#D1A745;}
	.st166{clip-path:url(#SVGID_2_);fill-rule:evenodd;clip-rule:evenodd;fill:#D0A644;}
	.st167{clip-path:url(#SVGID_2_);fill-rule:evenodd;clip-rule:evenodd;fill:#CFA543;}
	.st168{clip-path:url(#SVGID_2_);fill-rule:evenodd;clip-rule:evenodd;fill:#CEA341;}
	.st169{clip-path:url(#SVGID_2_);fill-rule:evenodd;clip-rule:evenodd;fill:#CDA240;}
	.st170{clip-path:url(#SVGID_2_);fill-rule:evenodd;clip-rule:evenodd;fill:#CCA13F;}
	.st171{clip-path:url(#SVGID_2_);fill-rule:evenodd;clip-rule:evenodd;fill:#CB9F3E;}
	.st172{clip-path:url(#SVGID_2_);fill-rule:evenodd;clip-rule:evenodd;fill:#CA9E3D;}
	.st173{clip-path:url(#SVGID_2_);fill-rule:evenodd;clip-rule:evenodd;fill:#C99D3C;}
	.st174{clip-path:url(#SVGID_2_);fill-rule:evenodd;clip-rule:evenodd;fill:#C89B3B;}
	.st175{clip-path:url(#SVGID_2_);fill-rule:evenodd;clip-rule:evenodd;fill:#C79A3A;}
	.st176{clip-path:url(#SVGID_2_);fill-rule:evenodd;clip-rule:evenodd;fill:#C69839;}
	.st177{clip-path:url(#SVGID_2_);fill-rule:evenodd;clip-rule:evenodd;fill:#C59738;}
	.st178{clip-path:url(#SVGID_2_);fill-rule:evenodd;clip-rule:evenodd;fill:#C49637;}
	.st179{clip-path:url(#SVGID_2_);fill-rule:evenodd;clip-rule:evenodd;fill:#C29436;}
	.st180{clip-path:url(#SVGID_2_);fill-rule:evenodd;clip-rule:evenodd;fill:#C19335;}
	.st181{clip-path:url(#SVGID_2_);fill-rule:evenodd;clip-rule:evenodd;fill:#C09234;}
	.st182{clip-path:url(#SVGID_2_);fill-rule:evenodd;clip-rule:evenodd;fill:#BF9033;}
	.st183{clip-path:url(#SVGID_2_);fill-rule:evenodd;clip-rule:evenodd;fill:#BE8F32;}
	.st184{clip-path:url(#SVGID_2_);fill-rule:evenodd;clip-rule:evenodd;fill:#BD8E31;}
	.st185{clip-path:url(#SVGID_2_);fill-rule:evenodd;clip-rule:evenodd;fill:#BC8C30;}
	.st186{clip-path:url(#SVGID_2_);fill-rule:evenodd;clip-rule:evenodd;fill:#BB8B2F;}
	.st187{clip-path:url(#SVGID_2_);fill-rule:evenodd;clip-rule:evenodd;fill:#BA892E;}
	.st188{clip-path:url(#SVGID_2_);fill-rule:evenodd;clip-rule:evenodd;fill:#B9882D;}
	.st189{clip-path:url(#SVGID_2_);fill-rule:evenodd;clip-rule:evenodd;fill:#B8872C;}
	.st190{clip-path:url(#SVGID_2_);fill-rule:evenodd;clip-rule:evenodd;fill:#B7852B;}
	.st191{clip-path:url(#SVGID_2_);fill-rule:evenodd;clip-rule:evenodd;fill:#B6842A;}
	.st192{clip-path:url(#SVGID_2_);fill-rule:evenodd;clip-rule:evenodd;fill:#B58329;}
	.st193{clip-path:url(#SVGID_2_);fill-rule:evenodd;clip-rule:evenodd;fill:#B48128;}
	.st194{clip-path:url(#SVGID_2_);fill-rule:evenodd;clip-rule:evenodd;fill:#B38027;}
	.st195{clip-path:url(#SVGID_2_);fill-rule:evenodd;clip-rule:evenodd;fill:#B48228;}
	.st196{clip-path:url(#SVGID_2_);fill-rule:evenodd;clip-rule:evenodd;fill:#B7862C;}
	.st197{clip-path:url(#SVGID_2_);fill-rule:evenodd;clip-rule:evenodd;fill:#B8872D;}
	.st198{clip-path:url(#SVGID_2_);fill-rule:evenodd;clip-rule:evenodd;fill:#BA882E;}
	.st199{clip-path:url(#SVGID_2_);fill-rule:evenodd;clip-rule:evenodd;fill:#BB8A2F;}
	.st200{clip-path:url(#SVGID_2_);fill-rule:evenodd;clip-rule:evenodd;fill:#BC8B30;}
	.st201{clip-path:url(#SVGID_2_);fill-rule:evenodd;clip-rule:evenodd;fill:#BD8D31;}
	.st202{clip-path:url(#SVGID_2_);fill-rule:evenodd;clip-rule:evenodd;fill:#BE8E32;}
	.st203{clip-path:url(#SVGID_2_);fill-rule:evenodd;clip-rule:evenodd;fill:#BF8F33;}
	.st204{clip-path:url(#SVGID_2_);fill-rule:evenodd;clip-rule:evenodd;fill:#C09134;}
	.st205{clip-path:url(#SVGID_2_);fill-rule:evenodd;clip-rule:evenodd;fill:#C19235;}
	.st206{clip-path:url(#SVGID_2_);fill-rule:evenodd;clip-rule:evenodd;fill:#C29437;}
	.st207{clip-path:url(#SVGID_2_);fill-rule:evenodd;clip-rule:evenodd;fill:#C39538;}
	.st208{clip-path:url(#SVGID_2_);fill-rule:evenodd;clip-rule:evenodd;fill:#C49639;}
	.st209{clip-path:url(#SVGID_2_);fill-rule:evenodd;clip-rule:evenodd;fill:#C5983A;}
	.st210{clip-path:url(#SVGID_2_);fill-rule:evenodd;clip-rule:evenodd;fill:#C6993B;}
	.st211{clip-path:url(#SVGID_2_);fill-rule:evenodd;clip-rule:evenodd;fill:#C79B3C;}
	.st212{clip-path:url(#SVGID_2_);fill-rule:evenodd;clip-rule:evenodd;fill:#C89C3D;}
	.st213{clip-path:url(#SVGID_2_);fill-rule:evenodd;clip-rule:evenodd;fill:#CA9D3E;}
	.st214{clip-path:url(#SVGID_2_);fill-rule:evenodd;clip-rule:evenodd;fill:#CB9F3F;}
	.st215{clip-path:url(#SVGID_2_);fill-rule:evenodd;clip-rule:evenodd;fill:#CCA041;}
	.st216{clip-path:url(#SVGID_2_);fill-rule:evenodd;clip-rule:evenodd;fill:#CDA242;}
	.st217{clip-path:url(#SVGID_2_);fill-rule:evenodd;clip-rule:evenodd;fill:#CEA343;}
	.st218{clip-path:url(#SVGID_2_);fill-rule:evenodd;clip-rule:evenodd;fill:#CFA444;}
	.st219{clip-path:url(#SVGID_2_);fill-rule:evenodd;clip-rule:evenodd;fill:#D0A645;}
	.st220{clip-path:url(#SVGID_2_);fill-rule:evenodd;clip-rule:evenodd;fill:#D1A746;}
	.st221{clip-path:url(#SVGID_2_);fill-rule:evenodd;clip-rule:evenodd;fill:#D2A847;}
	.st222{clip-path:url(#SVGID_2_);fill-rule:evenodd;clip-rule:evenodd;fill:#D3AA48;}
	.st223{clip-path:url(#SVGID_2_);fill-rule:evenodd;clip-rule:evenodd;fill:#D4AB49;}
	.st224{clip-path:url(#SVGID_2_);fill-rule:evenodd;clip-rule:evenodd;fill:#D5AD4A;}
	.st225{clip-path:url(#SVGID_2_);fill-rule:evenodd;clip-rule:evenodd;fill:#D6AE4C;}
	.st226{clip-path:url(#SVGID_2_);fill-rule:evenodd;clip-rule:evenodd;fill:#D7AF4D;}
	.st227{clip-path:url(#SVGID_2_);fill-rule:evenodd;clip-rule:evenodd;fill:#D9B14E;}
	.st228{clip-path:url(#SVGID_2_);fill-rule:evenodd;clip-rule:evenodd;fill:#DAB24F;}
	.st229{clip-path:url(#SVGID_2_);fill-rule:evenodd;clip-rule:evenodd;fill:#DBB450;}
	.st230{clip-path:url(#SVGID_2_);fill-rule:evenodd;clip-rule:evenodd;fill:#DCB551;}
	.st231{clip-path:url(#SVGID_2_);fill-rule:evenodd;clip-rule:evenodd;fill:#DDB652;}
	.st232{clip-path:url(#SVGID_2_);fill-rule:evenodd;clip-rule:evenodd;fill:#DEB853;}
	.st233{clip-path:url(#SVGID_2_);fill-rule:evenodd;clip-rule:evenodd;fill:#DFB954;}
	.st234{clip-path:url(#SVGID_2_);fill-rule:evenodd;clip-rule:evenodd;fill:#E0BB56;}
	.st235{clip-path:url(#SVGID_2_);fill-rule:evenodd;clip-rule:evenodd;fill:#E1BC57;}
	.st236{clip-path:url(#SVGID_2_);fill-rule:evenodd;clip-rule:evenodd;fill:#E2BD58;}
	.st237{clip-path:url(#SVGID_2_);fill-rule:evenodd;clip-rule:evenodd;fill:#E3BF59;}
</style>
<g>
	<g>
		<defs>
			<path id="SVGID_1_" d="M1034.7,1081.7c1.4-9.1,10.2-12,17.7-13.1C1048.4,1076.6,1043.1,1081.8,1034.7,1081.7L1034.7,1081.7z
				 M1165.8,169.7c10.3,14,39.2,41.9,43.2,57.1c-8.8-3.5-9.5-0.1-14.5-8.5c-10.6-17.8-11.6-24.8-43.1-26.4c-19.5-1-66,0.8-80,14.5
				c2.7,8.6,14.7,13.4,24,19c28,16.7,71.8,37,96.6,6.4c32.1-0.3,47.7,36.4,59.8,60.9c0.4,0.9,2.6,5.8,2.7,6c1.7,5.6,1.9,0.6,0.5,4.5
				c-6-2.4-3.7-11.8-20.6-23.4c-9.6-6.6-22.7-8.2-34.7-8.4c-16.5-0.2-63.3,7.9-72,17.8c10.6,20.5,66.7,40.6,92.8,39.4
				c18.8-0.9,19-6.9,30.6-15.5c26.1,15.8,34.2,54.9,42.9,84.7l0.1,13.4c-9.3-20.7-8.7-31-43.2-39.8c-17-4.4-66.2-4.1-78.4,3.3
				c3.5,19.6,59.9,53.6,83,56.4c36.8,4.5,41.4-34.7,53.2,29.7c2.3,12.2,8.9,35.5,3.8,46.7c-16.1-7.8-10.2-31.3-96.2-37.7
				c-2.5-0.2-5-0.7-7.5-0.3c-6.5,1.1-1.5-2.3-7.5,4c1,10,33.1,43.1,40.8,49.2c32.6,26,33.2,19.5,70.2,14.6c7.2,15.9,6.7,27.4,6,46
				c-0.6,16.4-2.5,33.1-6.4,49c-6.6-12.7-2.4-16.8-13.2-28.1c-19.9-20.9-59.9-38.2-89.9-39c-0.6,14.3,24.4,52.8,32.2,62.1
				c8.7,10.4,14.2,14.9,26,20c23.5,10.2,23.3,1.2,39.7,4c6.7,16.5,0.7,30.6-3.5,47.3c-3.3,13.1-6,33.3-13.9,42.8
				c-10.1-16.3,4.1-25.8-32.6-51.8c-13.3-9.4-38.6-26.5-54.4-29.3c-7,14.9,15.3,69.2,39.9,92.1c10.5,9.8,19,8.4,35.5,10.8
				c4.4,21.1-16,52.8-26.3,72c-5.1,9.5-1,5.7-8.6,9.2c-5-37.4-20.5-56.5-46.5-78.4c-6.7-5.7-13.9-16-25.8-13.8
				c-3.1,30.7,4.1,77.4,25.1,99.6c14.5,15.4,13.5,7.1,29.4,14.5c1.4,22.6-36.6,60.9-50.2,75.3c-4.2-31.2,6.4-25.6-14-64.3
				c-7.6-14.5-22.5-41.8-37.3-43.9c-9.4,16.2-6.8,56.3-5.1,72.7c3,28.8,8.6,37.1,32.9,49.9c1.9,21.8-60,62.9-64.5,64.2
				c4-22.7,12.7-30.4,1.4-65.6c-3.8-11.9-15.7-46.2-27.8-51.9c-9.7,17.7-18.3,41.2-20.8,63.2c-1.9,17.7-2.2,39.9,9.1,53.4
				c5,5.9,1.4,1.7,6.4,5c13.5,8.8-9.7-6.9,3.1,1.8c4,2.8,1.1-0.5,4.3,3.5c-4.7,19-64.1,47.4-77.6,48.9
				c10.8-25.2,18.4-26.6,15.8-59.8c-0.9-11.6-9.7-53.9-15.4-60c-6,1.5-7.5,5.8-11.1,11.3c-9.4,14.1-17.4,27.9-24.1,45
				c-17.1,44.2,9,64.9,8.9,69.7c-3.4,9.4-5.5,8.4-16.6,12.2c-20.7,7.1-49,20.3-72.4,18c16.9-14.9,25.8-23.4,29.4-47
				c3.2-20.9,5.2-52.8-1.1-70.7c-15.5,5.4-35.3,33-45.6,47c-6.3,8.5-11.8,19.9-12.9,33.5c-2.1,27.7,5.4,22.4,8.8,36.9
				c-8.9,9.1-27.4,10.7-43.1,11.8c-28.7,1.9-21.4-12.8-35.2-23.3c-13.5,14.1-5.6,53.6-6.1,76.7c19.9-6.7,4.3-40.6,59.4-30.3
				c-0.1,34.6,7.8,37.2,35.5,61.1c22,19,35.1,35.5,35.1,66.7l3,1.2c2.3-41.9,9.3-39-19-75.4c-24-30.9-31.9-30.5-22.5-63.5
				c25.2-3.6,41-12,68.6-5.5c8.2,27.2,6.6,38.3,43.7,50.8c17.2,5.8,67.1,15.9,85.3,9.5c-2.5-21.1-49-58.1-67.6-68.5
				c-12.5-7-27.1-7.6-33.9-12c12.8-6.1,25.7-9,39.7-15.9c16.7-8.2,27.1-12.5,49.1-7.8c12,7.4,1.7,32.6,53.8,37.4
				c17.4,1.6,73.2,0.3,83.6-8.2c-5-12.8-34.1-30.7-49.6-39.4c-34.7-19.5-38.1-17.5-74.7-12.6c2.3-2.4,1.3-1.6,4.1-4.1
				c11.2-9.8,25.6-15.3,37.6-24.9c13.8-11.1,23.6-19.4,47.8-19c19.8,23.4,24.5,30.4,65.6,26.9c17.7-1.5,66.2-16.7,73.3-25.8
				c-4.8-16.9-76.4-36.8-93.8-36.4c-14.3,0.4-22.9,7-34.3,8.5c3.2-7.6,11.3-12.3,16.3-17.5c15.7-16.3,32.6-46.8,59.3-46
				c22,23.8,43.9,24,73.8,11l48.9-27.1c6.9-5,11-4.9,13.5-12.1c-5.5-5.8-27.2-9.4-36.6-12c-23.6-6.6-63.7-8.5-84.6,6.3
				c-15.1,10.7-10.7,24-25.3,26.5c5.1-15.1,25-38.9,33.7-52.8c11.9-18.9,18-37.8,38.8-45.8c25.6,12.3,42.6,16.6,76.1-7.3
				c14.4-10.3,46.9-37.4,51.7-53.9c-35.3-2.6-85.4-6.6-113.6,19.5l-12.6,10.2c1.6-9.4,5.4-15.3,8.6-23.3c6.3-15.8,15.9-56,31.3-60.8
				c9.7-3,38.3,30.3,94.8-52.6c4.2-6.2,18.2-25.4,15.8-32.4c-15.1-7-52.2,6.2-65.8,12.4c-10.2,4.6-18.2,9.2-26.3,15.3
				c-7.8,5.8-13.1,14.9-20.8,20.3c-3.7-9,2.8-34,4-45.7c1.7-16,6.2-31.5,15.1-40.4c23.1-4.9,18.5,5.1,41.2-9.7
				c32.1-20.8,39.1-66.3,51.3-101.7c-24.5-1.7-72.2,32.1-86.6,50.3l-15.8,26.4c-0.3,0.5-0.9,1.3-1.1,1.7c-0.3,0.4-0.7,1.1-1.2,1.7
				l-2.5-15.6c-0.3-6.1-0.5-12.2-0.8-18.4c-0.6-10.4-2.7-23.9-1.7-34.6c3.4-37.8,21.3-19.3,38.8-35.3
				c22.8-20.9,36.6-73.3,32.7-114.5c-13.3,1-41.4,27.5-50.6,36.9c-15.5,15.9-25.7,31.3-31.1,58.5c-14.3-15.4-28.2-81.4-18-93.8
				c8.7-10.5,35.3-6.8,40.9-54.1c1.8-15.5-0.9-71.9-10-82.7c-10.8,0.8-20,18.1-26,26.7c-16.3,23.3-32.8,49.8-29,81.1
				c2.5,20.6,21,22.5,13.6,36.1c-10.3-0.5-9.7-9.1-16.9-23.8c-4.8-9.8-8.4-19-12.9-28.6c-9.1-19.4-26.7-34.1-20-63.7
				c14.1-8.2,18.1-3.3,25.3-22.5c5.8-15.5,6.9-26.2,5.4-44.4c-1.5-17.9-13.7-65.1-24.5-73.1c-21,15.7-43.4,85.7-34.2,116.2
				c5.2,17.2,25,19.4,15.7,32c-6.7-2.7-30.8-38.7-38-46.6c-3.1-3.5-19.4-20.6-19.9-21.6c-7.6-14.5,23-39.6-37.5-82
				c-10.7-7.5-42.4-30-56.2-28.2c0.3,18,15.4,60.6,23,75.2C1118.6,161.6,1134.4,172,1165.8,169.7L1165.8,169.7z M254,234.4
				c4.8-22.7,45.8-32.3,4.3-114.1c-5.1-10-12.1-24.3-19.4-32.2c-0.5,0.4-1.2,0.4-1.4,1.2l-8.2,13.2c-2.2,5.6-4.1,12.3-6.2,19.2
				c-7.8,25.9-14.7,64.3-0.5,89.3c7,12.4,10.5,11,22.4,16.2c6,28-8.8,44.9-19,63l-20.9,41.1c-4.7,10.8-0.8,8.6-10.9,11.2
				c-3-16.6,14.9-14,14.9-44.2c0-23.9-34.1-95.1-55.6-99.4c-6.5,8.9-9.9,55.9-9.9,67.2c0,16.8,3.7,33.5,10.2,45.8
				c16,30.5,51.8,11.8,29.8,76.2c-5,14.6-7.1,34.6-16.8,46.9c-4.8-43.9-24.6-58.2-53.2-83c-6.1-5.2-16.9-17.8-27.7-15.3
				c-4.8,32,6.2,85.6,28.7,108.6c12.3,12.6,13.2,12.8,34.3,14.5c14,25.8,5.7,62.7,3.9,91.3c-8.7-7.7-3.6-0.8-9.3-12.6
				c-11.9-24.6-69.7-68.5-95.5-65.1c0.6,29.3,27.1,80.8,48.8,100.2c14.7,13.2,19.3,9.9,40.6,10.3c16.4,7.2,23.9,71.4,21.6,85.6
				c-1.9-0.8-17.8-21.2-46.7-33.2c-12-5-51.1-19.6-64.1-13.8c-3,4.1-4.4-6.4-1.4,7.8c2.8,13.3,29.4,46.1,37.6,54.6
				c43.7,45.7,62.1,18.2,73.8,23.4c16.1,7.2,32.3,64.2,37.8,80.9c-30.1-12.6-10.1-30.7-126.3-26.9c7.3,24.5,64.4,70.1,90.8,70.1
				c24.7,0,17.8,0.5,36.8-8.9c22.4,7.8,42.1,50.7,56.5,71.8c6.4,9.4,13.1,16.6,18.2,26.7c-10.9-0.9-8.1-0.1-13.7-10.4
				c-3.7-6.8-6.1-10-11-14.3c-28.2-25-93.5-8.1-123.4,1.4c0.6,10.6,8.8,13.3,16.2,18.2c21.8,14.5,54.2,31.3,82.5,31.3
				c26.7,0,27.8-12.3,39.2-19.1c17.4-3.2,64.9,54.3,82.7,68.9c4.9,4.1,8.6,4.4,8.7,12.8c-12.8-1-17.8-26.5-56.9-26.5
				c-19.8,0-83.5,22.9-90.2,36.4c10,12.7,102.4,44.1,130.4,12.5c5-5.7,3.1-10,12.9-13.7c20.7-3.6,60.7,31,80.8,42.4
				c7.7,4.4,19.8,9.1,24.8,16.3c-12.4,8.6-11.8-14.5-48-14.5c-27.9,0-89.8,41.8-95.8,55.9c12.6,10.5,90.3,13.8,117-1.8
				c15.1-8.8,13.7-12.3,19.5-28c21.8-2.1,36.6,1.9,56.8,10.6c7.9,3.4,30.4,8.8,33,16.8c-6.4,4.8-34,0.3-61.1,27.8
				c-10.3,10.4-38,34.2-41.3,50.6c37.3,4,94.5-2.6,118.3-31.3c18.6-22.4-9.4-44.9,68.2-26.6c21.4,5,21,18.5,11.6,37.3
				c-12.1,24.3-57.3,56.8-43.4,97.9c3.5,10.5,0.9,4.9,6.4,8.6c0-54.9,32.8-63.6,61.1-93.9c10.7-11.5,11.6-18.4,6.7-37.1
				c8.8-4.1,29.3-1.6,38.6,3c12.4,6.1,9,19.3,21.7,25.4c3.4-23.1,3.9-55.6-3.2-73.8c-6,2.2-3.9,1.2-7.4,5.4
				c-13.4,16.3-9.1,21.1-54.8,13.2c-10.7-1.8-13.8-4.6-18.2-10.8c5.4-8.6,10-16.3,10-27.9c0-23.3-36.8-84.9-59.1-87
				c-6.5,33.6-8.6,88.3,19.9,110.8l8,6.5c-13.3,1.2-86.6-16.5-88.4-30.3c2.1-11.5,4.6-4.3,10.1-15.7c10.5-21.7-1.2-53.1-9.4-71.8
				c-4.6-10.6-9.9-21.5-17.5-30.9c-6.7-8.3,0-5.3-10.3-6c-13.3,20-14.5,55.6-14.5,80.6c0,19.3,8.2,23.5,14.9,37.3
				c-12-0.9-33.3-14-43.7-19.3c-13.9-7.1-31.2-14.2-32.1-29.4c11.7-11.9,22.5-14.7,22.5-41.4c0-27.2-8.6-64.7-21-85
				c-18,6.6-34.4,68.8-34.4,89.6c0,14.7,5.5,17.6,6.4,27.1c-9.9-2-26.7-20.5-36.2-27.4c-12.1-8.6-27.5-18.4-27.8-36.9
				c14.3-5.1,22.1-9.8,28.2-24.3c13.4-31.9,5.4-66,0.6-98.1c-15.8,3.7-30,31-38.6,44.1c-16.1,24.5-14,37.1-12.2,64.2
				c-8.8-4.2-24.9-25.2-31.3-33.5c-9.2-12.1-20.7-24.1-21.1-42.4c21.7-4.8,33.8-10.2,42.6-33.1c9.5-24.7,14.6-54.1,11.4-81.1
				c-15.1,1.8-36,26.5-46.4,37c-24.8,24.9-17.6,41.6-27.2,56.3c-8.3-11.5-37.4-63.3-34-80.3c0.6-0.3,1.6-1.3,1.9-0.7
				c0.1,0.2,22.8-1.4,33.7-10c23.2-18.4,48.4-84.3,41.1-91.7c-7.6-7.7-63.9,34.5-73.8,45.3c-3.4,3.7-6.2,7.9-8.1,12.6
				c-3.8,9-0.5,11.8-7.6,15.9l-2.1-2.7c-2.6-5,0.1,2-2.2-4.9l-7.7-33.8c-4.6-19.3-9-26.2-1.4-43.6c34.9,7.9,47-7.1,68.3-30.7
				c7.2-8,30.6-39.8,27.4-54.2c-21.8-2.1-72,20.8-88.1,37.2c-7,7.1-10.2,19.9-18.6,23.3c-8.9-112.1,1.9-84.6,24.4-84.6
				c29.3,0,40.5-9.1,59.3-27.8c7.1-7.1,30.2-31.6,31.5-41.8c-20.8-10.5-84,7.4-102.3,26.3c-7.7,8-0.5,6.6-11.7,9.6
				c5.9-27.5,3.7-66.3,20.1-85.6c27.1,0,21.8,23,72.3-4.5c15.3-8.3,48-30.1,49.8-43.2c-11.3-9.5-78.4-5.6-94.7,2.9
				c-8.9,4.7-18.8,17.4-22.8,18.1c-2.7-15.7,18-70.3,37.8-81.5c17.9,7.1,23.3,28.8,87.7,0.3c14.1-6.2,33.8-14.4,39-26
				c-19.6-14-75.2-21.6-101.7-11.5c-8.1,3.1-11.8,9.4-19.3,11c-0.3-12.5,21.1-42.6,32.3-48.5c6.1-3.2,12.7-6.8,19.6-8.4
				c11.6,8.7,9.8,13.8,31,15.4c13.8,1,26-1.8,37.8-6.1c18.1-6.7,52.4-19.5,55.4-36.5c-28.5-7.1-84.6-24.5-113.7-1
				c-14.8,12-2,18.7-25.4,24.9c5.9-20.9,33.3-39.6,44.8-57.9l13.8,0.6c29.6,2,53.1-44.5,61.9-70.5c18.7-55.7,8.8-53.7-42.7-17.4
				c-70.9,50-26.3,71.2-47.8,90.2c-5.5,4.9-2.9,1.5-7.8,8.3l-34.9,45.6C260.7,234.6,263.9,233.7,254,234.4L254,234.4z"/>
		</defs>
		<clipPath id="SVGID_2_">
			<use xlink:href="#SVGID_1_"  style="overflow:visible;"/>
		</clipPath>
		<polyline class="st0" points="208.6,-171 245.4,-161.8 -73.3,1117.9 -110.1,1108.8 		"/>
		<polyline class="st1" points="242.7,-162.5 250.8,-160.5 -67.9,1119.2 -76,1117.2 		"/>
		<polyline class="st2" points="248.1,-161.2 256.3,-159.1 -62.4,1120.6 -70.6,1118.6 		"/>
		<polyline class="st3" points="253.6,-159.8 261.7,-157.8 -57,1121.9 -65.1,1119.9 		"/>
		<polyline class="st4" points="259,-158.5 267.2,-156.4 -51.6,1123.3 -59.7,1121.3 		"/>
		<polyline class="st5" points="264.4,-157.1 272.6,-155.1 -46.1,1124.6 -54.3,1122.6 		"/>
		<polyline class="st6" points="269.9,-155.8 278,-153.7 -40.7,1126 -48.9,1124 		"/>
		<polyline class="st7" points="275.3,-154.4 283.5,-152.4 -35.2,1127.3 -43.4,1125.3 		"/>
		<polyline class="st8" points="280.7,-153.1 288.9,-151 -29.8,1128.7 -38,1126.6 		"/>
		<polyline class="st9" points="286.2,-151.7 294.3,-149.7 -24.4,1130 -32.5,1128 		"/>
		<polyline class="st10" points="291.6,-150.3 299.8,-148.3 -19,1131.4 -27.1,1129.4 		"/>
		<polyline class="st11" points="297.1,-149 305.2,-147 -13.5,1132.7 -21.7,1130.7 		"/>
		<polyline class="st12" points="302.5,-147.7 310.7,-145.6 -8.1,1134.1 -16.2,1132 		"/>
		<polyline class="st13" points="307.9,-146.3 316.1,-144.3 -2.6,1135.4 -10.8,1133.4 		"/>
		<polyline class="st14" points="313.4,-145 321.5,-142.9 2.8,1136.8 -5.3,1134.8 		"/>
		<polyline class="st15" points="318.8,-143.6 327,-141.6 8.2,1138.1 0.1,1136.1 		"/>
		<polyline class="st16" points="324.2,-142.3 332.4,-140.2 13.7,1139.5 5.5,1137.5 		"/>
		<polyline class="st17" points="329.7,-140.9 337.9,-138.9 19.1,1140.8 11,1138.8 		"/>
		<polyline class="st18" points="335.1,-139.6 343.3,-137.5 24.6,1142.2 16.4,1140.1 		"/>
		<polyline class="st19" points="340.6,-138.2 348.7,-136.2 30,1143.5 21.8,1141.5 		"/>
		<polyline class="st20" points="346,-136.9 354.1,-134.9 35.4,1144.9 27.3,1142.9 		"/>
		<polyline class="st21" points="351.4,-135.5 359.6,-133.5 40.9,1146.2 32.7,1144.2 		"/>
		<polyline class="st22" points="356.9,-134.2 365,-132.1 46.3,1147.6 38.2,1145.5 		"/>
		<polyline class="st23" points="362.3,-132.8 370.5,-130.8 51.7,1148.9 43.6,1146.9 		"/>
		<polyline class="st24" points="367.8,-131.5 375.9,-129.5 57.2,1150.3 49,1148.3 		"/>
		<polyline class="st25" points="373.2,-130.1 381.3,-128.1 62.6,1151.6 54.5,1149.6 		"/>
		<polyline class="st26" points="378.6,-128.8 386.8,-126.7 68.1,1153 59.9,1150.9 		"/>
		<polyline class="st27" points="384,-127.4 392.2,-125.4 73.5,1154.3 65.3,1152.3 		"/>
		<polyline class="st28" points="389.5,-126.1 397.7,-124.1 78.9,1155.7 70.8,1153.6 		"/>
		<polyline class="st29" points="394.9,-124.7 403.1,-122.7 84.4,1157 76.2,1155 		"/>
		<polyline class="st30" points="400.4,-123.4 408.5,-121.4 89.8,1158.4 81.6,1156.3 		"/>
		<polyline class="st31" points="405.8,-122 413.9,-120 95.2,1159.7 87.1,1157.7 		"/>
		<polyline class="st32" points="411.2,-120.7 419.4,-118.7 100.7,1161.1 92.5,1159 		"/>
		<polyline class="st33" points="416.7,-119.3 424.8,-117.3 106.1,1162.4 98,1160.4 		"/>
		<polyline class="st34" points="422.1,-118 430.3,-116 111.5,1163.7 103.4,1161.7 		"/>
		<polyline class="st35" points="427.6,-116.6 435.7,-114.6 117,1165.1 108.8,1163.1 		"/>
		<polyline class="st36" points="433,-115.3 441.2,-113.2 122.4,1166.5 114.3,1164.4 		"/>
		<polyline class="st37" points="438.4,-113.9 446.6,-111.9 127.9,1167.8 119.7,1165.8 		"/>
		<polyline class="st38" points="443.9,-112.6 452,-110.6 133.3,1169.1 125.1,1167.1 		"/>
		<polyline class="st39" points="449.3,-111.2 457.5,-109.2 138.7,1170.5 130.6,1168.5 		"/>
		<polyline class="st40" points="454.7,-109.9 462.9,-107.9 144.2,1171.9 136,1169.8 		"/>
		<polyline class="st41" points="460.2,-108.5 468.3,-106.5 149.6,1173.2 141.5,1171.2 		"/>
		<polyline class="st42" points="465.6,-107.2 473.8,-105.2 155,1174.6 146.9,1172.5 		"/>
		<polyline class="st43" points="471.1,-105.8 479.2,-103.8 160.5,1175.9 152.3,1173.9 		"/>
		<polyline class="st44" points="476.5,-104.5 484.6,-102.5 165.9,1177.2 157.8,1175.2 		"/>
		<polyline class="st45" points="481.9,-103.1 490.1,-101.1 171.4,1178.6 163.2,1176.6 		"/>
		<polyline class="st41" points="487.4,-101.8 495.5,-99.8 176.8,1180 168.6,1177.9 		"/>
		<polyline class="st46" points="492.8,-100.4 501,-98.4 182.2,1181.3 174.1,1179.3 		"/>
		<polyline class="st47" points="498.2,-99.1 506.4,-97.1 187.7,1182.6 179.5,1180.6 		"/>
		<polyline class="st48" points="503.7,-97.8 511.8,-95.7 193.1,1184 184.9,1182 		"/>
		<polyline class="st49" points="509.1,-96.4 517.3,-94.4 198.5,1185.4 190.4,1183.3 		"/>
		<polyline class="st50" points="514.5,-95 522.7,-93 204,1186.7 195.8,1184.7 		"/>
		<polyline class="st51" points="520,-93.7 528.1,-91.7 209.4,1188 201.3,1186 		"/>
		<polyline class="st52" points="525.4,-92.4 533.6,-90.3 214.8,1189.4 206.7,1187.4 		"/>
		<polyline class="st53" points="530.9,-91 539,-89 220.3,1190.7 212.1,1188.7 		"/>
		<polyline class="st54" points="536.3,-89.6 544.4,-87.6 225.7,1192.1 217.6,1190.1 		"/>
		<polyline class="st55" points="541.7,-88.3 549.9,-86.3 231.2,1193.4 223,1191.4 		"/>
		<polyline class="st56" points="547.2,-87 555.3,-84.9 236.6,1194.8 228.4,1192.8 		"/>
		<polyline class="st57" points="552.6,-85.6 560.8,-83.6 242,1196.1 233.9,1194.1 		"/>
		<polyline class="st58" points="558,-84.3 566.2,-82.2 247.5,1197.5 239.3,1195.5 		"/>
		<polyline class="st59" points="563.5,-82.9 571.6,-80.9 252.9,1198.8 244.7,1196.8 		"/>
		<polyline class="st60" points="568.9,-81.6 577.1,-79.5 258.3,1200.2 250.2,1198.2 		"/>
		<polyline class="st61" points="574.4,-80.2 582.5,-78.2 263.8,1201.5 255.6,1199.5 		"/>
		<polyline class="st62" points="579.8,-78.9 587.9,-76.8 269.2,1202.9 261.1,1200.8 		"/>
		<polyline class="st63" points="585.2,-77.5 593.4,-75.5 274.7,1204.2 266.5,1202.2 		"/>
		<polyline class="st64" points="590.7,-76.2 598.8,-74.1 280.1,1205.6 271.9,1203.6 		"/>
		<polyline class="st65" points="596.1,-74.8 604.3,-72.8 285.5,1206.9 277.4,1204.9 		"/>
		<polyline class="st66" points="601.5,-73.5 609.7,-71.4 291,1208.3 282.8,1206.2 		"/>
		<polyline class="st67" points="607,-72.1 615.1,-70.1 296.4,1209.6 288.2,1207.6 		"/>
		<polyline class="st68" points="612.4,-70.8 620.6,-68.7 301.9,1211 293.7,1209 		"/>
		<polyline class="st69" points="617.8,-69.4 626,-67.4 307.3,1212.3 299.1,1210.3 		"/>
		<polyline class="st70" points="623.3,-68.1 631.4,-66 312.7,1213.7 304.6,1211.7 		"/>
		<polyline class="st71" points="628.7,-66.7 636.9,-64.7 318.1,1215 310,1213 		"/>
		<polyline class="st72" points="634.2,-65.4 642.3,-63.3 323.6,1216.4 315.4,1214.3 		"/>
		<polyline class="st73" points="639.6,-64 647.7,-62 329,1217.7 320.9,1215.7 		"/>
		<polyline class="st74" points="645,-62.7 653.2,-60.7 334.5,1219.1 326.3,1217.1 		"/>
		<polyline class="st75" points="650.5,-61.3 658.6,-59.3 339.9,1220.4 331.8,1218.4 		"/>
		<polyline class="st76" points="655.9,-60 664.1,-57.9 345.3,1221.8 337.2,1219.7 		"/>
		<polyline class="st77" points="661.3,-58.6 669.5,-56.6 350.8,1223.1 342.6,1221.1 		"/>
		<polyline class="st78" points="666.8,-57.3 674.9,-55.3 356.2,1224.5 348,1222.5 		"/>
		<polyline class="st79" points="672.2,-55.9 680.4,-53.9 361.7,1225.8 353.5,1223.8 		"/>
		<polyline class="st80" points="677.6,-54.6 685.8,-52.5 367.1,1227.2 358.9,1225.1 		"/>
		<polyline class="st81" points="683.1,-53.2 691.2,-51.2 372.5,1228.5 364.4,1226.5 		"/>
		<polyline class="st82" points="688.5,-51.9 696.7,-49.9 377.9,1229.9 369.8,1227.8 		"/>
		<polyline class="st83" points="694,-50.5 702.1,-48.5 383.4,1231.2 375.2,1229.2 		"/>
		<polyline class="st84" points="699.4,-49.2 707.6,-47.2 388.8,1232.6 380.7,1230.5 		"/>
		<polyline class="st85" points="704.8,-47.8 713,-45.8 394.3,1233.9 386.1,1231.9 		"/>
		<polyline class="st81" points="710.3,-46.5 718.4,-44.5 399.7,1235.3 391.6,1233.2 		"/>
		<polyline class="st86" points="715.7,-45.1 723.9,-43.1 405.2,1236.6 397,1234.6 		"/>
		<polyline class="st87" points="721.1,-43.8 729.3,-41.8 410.6,1237.9 402.4,1235.9 		"/>
		<polyline class="st88" points="726.6,-42.4 734.7,-40.4 416,1239.3 407.9,1237.3 		"/>
		<polyline class="st78" points="732,-41.1 740.2,-39.1 421.5,1240.7 413.3,1238.6 		"/>
		<polyline class="st89" points="737.5,-39.7 745.6,-37.7 426.9,1242 418.7,1240 		"/>
		<polyline class="st90" points="742.9,-38.4 751,-36.4 432.3,1243.3 424.2,1241.3 		"/>
		<polyline class="st91" points="748.3,-37 756.5,-35 437.8,1244.7 429.6,1242.7 		"/>
		<polyline class="st92" points="753.8,-35.7 761.9,-33.7 443.2,1246.1 435.1,1244 		"/>
		<polyline class="st93" points="759.2,-34.3 767.4,-32.3 448.6,1247.4 440.5,1245.4 		"/>
		<polyline class="st94" points="764.6,-33 772.8,-31 454.1,1248.8 445.9,1246.7 		"/>
		<polyline class="st95" points="770.1,-31.6 778.2,-29.6 459.5,1250.1 451.4,1248.1 		"/>
		<polyline class="st72" points="775.5,-30.3 783.7,-28.3 465,1251.4 456.8,1249.4 		"/>
		<polyline class="st96" points="780.9,-28.9 789.1,-26.9 470.4,1252.8 462.2,1250.8 		"/>
		<polyline class="st97" points="786.4,-27.6 794.5,-25.6 475.8,1254.2 467.7,1252.1 		"/>
		<polyline class="st98" points="791.8,-26.2 800,-24.2 481.3,1255.5 473.1,1253.5 		"/>
		<polyline class="st99" points="797.3,-24.9 805.4,-22.9 486.7,1256.8 478.5,1254.8 		"/>
		<polyline class="st100" points="802.7,-23.6 810.9,-21.5 492.1,1258.2 484,1256.2 		"/>
		<polyline class="st101" points="808.1,-22.2 816.3,-20.2 497.6,1259.6 489.4,1257.5 		"/>
		<polyline class="st102" points="813.6,-20.8 821.7,-18.8 503,1260.9 494.9,1258.9 		"/>
		<polyline class="st66" points="819,-19.5 827.2,-17.5 508.4,1262.2 500.3,1260.2 		"/>
		<polyline class="st103" points="824.4,-18.2 832.6,-16.1 513.9,1263.6 505.7,1261.6 		"/>
		<polyline class="st104" points="829.9,-16.8 838.1,-14.8 519.3,1264.9 511.2,1262.9 		"/>
		<polyline class="st105" points="835.3,-15.4 843.5,-13.4 524.8,1266.3 516.6,1264.3 		"/>
		<polyline class="st106" points="840.8,-14.1 848.9,-12.1 530.2,1267.6 522,1265.6 		"/>
		<polyline class="st107" points="846.2,-12.8 854.3,-10.7 535.6,1269 527.5,1267 		"/>
		<polyline class="st108" points="851.6,-11.4 859.8,-9.4 541.1,1270.3 532.9,1268.3 		"/>
		<polyline class="st109" points="857.1,-10.1 865.2,-8 546.5,1271.7 538.4,1269.6 		"/>
		<polyline class="st110" points="862.5,-8.7 870.7,-6.7 551.9,1273 543.8,1271 		"/>
		<polyline class="st111" points="868,-7.4 876.1,-5.3 557.4,1274.4 549.2,1272.4 		"/>
		<polyline class="st112" points="873.4,-6 881.5,-4 562.8,1275.7 554.7,1273.7 		"/>
		<polyline class="st113" points="878.8,-4.7 887,-2.6 568.3,1277.1 560.1,1275 		"/>
		<polyline class="st114" points="884.2,-3.3 892.4,-1.3 573.7,1278.4 565.5,1276.4 		"/>
		<polyline class="st115" points="889.7,-2 897.9,0.1 579.1,1279.8 571,1277.8 		"/>
		<polyline class="st116" points="895.1,-0.6 903.3,1.4 584.6,1281.1 576.4,1279.1 		"/>
		<polyline class="st117" points="900.6,0.7 908.7,2.8 590,1282.5 581.8,1280.4 		"/>
		<polyline class="st118" points="906,2.1 914.1,4.1 595.4,1283.8 587.3,1281.8 		"/>
		<polyline class="st119" points="911.4,3.4 919.6,5.5 600.9,1285.2 592.7,1283.1 		"/>
		<polyline class="st120" points="916.9,4.8 925,6.8 606.3,1286.5 598.2,1284.5 		"/>
		<polyline class="st121" points="922.3,6.1 930.5,8.1 611.7,1287.9 603.6,1285.9 		"/>
		<polyline class="st122" points="927.8,7.5 935.9,9.5 617.2,1289.2 609,1287.2 		"/>
		<polyline class="st123" points="933.2,8.8 941.3,10.9 622.6,1290.6 614.5,1288.5 		"/>
		<polyline class="st124" points="938.6,10.2 946.8,12.2 628.1,1291.9 619.9,1289.9 		"/>
		<polyline class="st125" points="944.1,11.5 952.2,13.5 633.5,1293.3 625.3,1291.3 		"/>
		<polyline class="st126" points="949.5,12.9 957.7,14.9 638.9,1294.6 630.8,1292.6 		"/>
		<polyline class="st127" points="954.9,14.2 963.1,16.3 644.4,1296 636.2,1293.9 		"/>
		<polyline class="st128" points="960.4,15.6 968.5,17.6 649.8,1297.3 641.6,1295.3 		"/>
		<polyline class="st129" points="965.8,16.9 974,18.9 655.2,1298.7 647.1,1296.6 		"/>
		<polyline class="st130" points="971.3,18.3 979.4,20.3 660.7,1300 652.5,1298 		"/>
		<polyline class="st131" points="976.7,19.6 984.8,21.6 666.1,1301.4 658,1299.3 		"/>
		<polyline class="st132" points="982.1,21 990.3,23 671.6,1302.7 663.4,1300.7 		"/>
		<polyline class="st133" points="987.6,22.3 995.7,24.3 677,1304.1 668.9,1302 		"/>
		<polyline class="st134" points="993,23.7 1001.2,25.7 682.4,1305.4 674.3,1303.4 		"/>
		<polyline class="st135" points="998.4,25 1006.6,27 687.9,1306.7 679.7,1304.7 		"/>
		<polyline class="st136" points="1003.9,26.4 1012,28.4 693.3,1308.1 685.1,1306.1 		"/>
		<polyline class="st137" points="1009.3,27.7 1017.5,29.7 698.8,1309.5 690.6,1307.4 		"/>
		<polyline class="st138" points="1014.7,29.1 1022.9,31.1 704.2,1310.8 696,1308.8 		"/>
		<polyline class="st139" points="1020.2,30.4 1028.3,32.4 709.6,1312.1 701.5,1310.1 		"/>
		<polyline class="st140" points="1025.6,31.8 1033.8,33.8 715,1313.5 706.9,1311.5 		"/>
		<polyline class="st141" points="1031.1,33.1 1039.2,35.1 720.5,1314.9 712.3,1312.8 		"/>
		<polyline class="st142" points="1036.5,34.5 1044.6,36.5 725.9,1316.2 717.8,1314.2 		"/>
		<polyline class="st143" points="1041.9,35.8 1050.1,37.8 731.4,1317.5 723.2,1315.5 		"/>
		<polyline class="st144" points="1047.4,37.2 1055.5,39.2 736.8,1318.9 728.7,1316.9 		"/>
		<polyline class="st145" points="1052.8,38.5 1061,40.5 742.2,1320.2 734.1,1318.2 		"/>
		<polyline class="st146" points="1058.2,39.9 1066.4,41.9 747.7,1321.6 739.5,1319.6 		"/>
		<polyline class="st147" points="1063.7,41.2 1071.8,43.2 753.1,1323 744.9,1320.9 		"/>
		<polyline class="st148" points="1069.1,42.6 1077.3,44.6 758.6,1324.3 750.4,1322.3 		"/>
		<polyline class="st149" points="1074.6,43.9 1082.7,45.9 764,1325.6 755.8,1323.6 		"/>
		<polyline class="st150" points="1080,45.2 1088.1,47.3 769.4,1327 761.3,1325 		"/>
		<polyline class="st151" points="1085.4,46.6 1093.6,48.6 774.9,1328.4 766.7,1326.3 		"/>
		<polyline class="st152" points="1090.9,48 1099,50 780.3,1329.7 772.1,1327.7 		"/>
		<polyline class="st153" points="1096.3,49.3 1104.5,51.3 785.7,1331 777.6,1329 		"/>
		<polyline class="st154" points="1101.7,50.6 1109.9,52.7 791.2,1332.4 783,1330.4 		"/>
		<polyline class="st155" points="1107.2,52 1115.3,54 796.6,1333.7 788.5,1331.7 		"/>
		<polyline class="st156" points="1112.6,53.4 1120.8,55.4 802.1,1335.1 793.9,1333.1 		"/>
		<polyline class="st157" points="1118,54.7 1126.2,56.7 807.5,1336.4 799.3,1334.4 		"/>
		<polyline class="st158" points="1123.5,56 1131.6,58.1 812.9,1337.8 804.8,1335.8 		"/>
		<polyline class="st159" points="1128.9,57.4 1137.1,59.4 818.4,1339.1 810.2,1337.1 		"/>
		<polyline class="st160" points="1134.4,58.7 1142.5,60.8 823.8,1340.5 815.6,1338.5 		"/>
		<polyline class="st161" points="1139.8,60.1 1147.9,62.1 829.2,1341.8 821.1,1339.8 		"/>
		<polyline class="st162" points="1145.2,61.4 1153.4,63.5 834.7,1343.2 826.5,1341.2 		"/>
		<polyline class="st163" points="1150.7,62.8 1158.8,64.8 840.1,1344.5 832,1342.5 		"/>
		<polyline class="st164" points="1156.1,64.1 1164.3,66.2 845.5,1345.9 837.4,1343.8 		"/>
		<polyline class="st165" points="1161.5,65.5 1169.7,67.5 851,1347.2 842.8,1345.2 		"/>
		<polyline class="st166" points="1167,66.8 1175.1,68.9 856.4,1348.6 848.3,1346.6 		"/>
		<polyline class="st167" points="1172.4,68.2 1180.6,70.2 861.9,1349.9 853.7,1347.9 		"/>
		<polyline class="st168" points="1177.8,69.5 1186,71.6 867.3,1351.3 859.1,1349.2 		"/>
		<polyline class="st169" points="1183.3,70.9 1191.4,72.9 872.7,1352.6 864.6,1350.6 		"/>
		<polyline class="st170" points="1188.7,72.2 1196.9,74.3 878.2,1354 870,1352 		"/>
		<polyline class="st171" points="1194.2,73.6 1202.3,75.6 883.6,1355.3 875.4,1353.3 		"/>
		<polyline class="st172" points="1199.6,74.9 1207.8,77 889,1356.7 880.9,1354.6 		"/>
		<polyline class="st173" points="1205,76.3 1213.2,78.3 894.5,1358 886.3,1356 		"/>
		<polyline class="st174" points="1210.5,77.6 1218.6,79.7 899.9,1359.4 891.8,1357.3 		"/>
		<polyline class="st175" points="1215.9,79 1224.1,81 905.3,1360.7 897.2,1358.7 		"/>
		<polyline class="st176" points="1221.3,80.3 1229.5,82.3 910.8,1362.1 902.6,1360.1 		"/>
		<polyline class="st177" points="1226.8,81.7 1235,83.7 916.2,1363.4 908.1,1361.4 		"/>
		<polyline class="st178" points="1232.2,83 1240.4,85.1 921.7,1364.8 913.5,1362.7 		"/>
		<polyline class="st179" points="1237.7,84.4 1245.8,86.4 927.1,1366.1 918.9,1364.1 		"/>
		<polyline class="st180" points="1243.1,85.7 1251.2,87.7 932.5,1367.5 924.4,1365.5 		"/>
		<polyline class="st181" points="1248.5,87.1 1256.7,89.1 938,1368.8 929.8,1366.8 		"/>
		<polyline class="st182" points="1254,88.4 1262.1,90.5 943.4,1370.2 935.3,1368.1 		"/>
		<polyline class="st183" points="1259.4,89.8 1267.6,91.8 948.8,1371.5 940.7,1369.5 		"/>
		<polyline class="st184" points="1264.9,91.1 1273,93.1 954.3,1372.9 946.1,1370.8 		"/>
		<polyline class="st185" points="1270.3,92.5 1278.4,94.5 959.7,1374.2 951.6,1372.2 		"/>
		<polyline class="st186" points="1275.7,93.8 1283.9,95.8 965.2,1375.6 957,1373.5 		"/>
		<polyline class="st187" points="1281.1,95.2 1289.3,97.2 970.6,1376.9 962.4,1374.9 		"/>
		<polyline class="st188" points="1286.6,96.5 1294.8,98.5 976,1378.3 967.9,1376.2 		"/>
		<polyline class="st189" points="1292,97.9 1300.2,99.9 981.5,1379.6 973.3,1377.6 		"/>
		<polyline class="st190" points="1297.5,99.2 1305.6,101.2 986.9,1380.9 978.7,1378.9 		"/>
		<polyline class="st191" points="1302.9,100.6 1311,102.6 992.3,1382.3 984.2,1380.3 		"/>
		<polyline class="st192" points="1308.3,101.9 1316.5,103.9 997.8,1383.7 989.6,1381.6 		"/>
		<polyline class="st193" points="1313.8,103.3 1321.9,105.3 1003.2,1385 995.1,1383 		"/>
		<polyline class="st194" points="1319.2,104.6 1327.4,106.6 1008.6,1386.3 1000.5,1384.3 		"/>
		<polyline class="st195" points="1324.7,106 1332.8,108 1014.1,1387.7 1005.9,1385.7 		"/>
		<polyline class="st192" points="1330.1,107.3 1338.3,109.3 1019.5,1389.1 1011.4,1387 		"/>
		<polyline class="st191" points="1335.5,108.7 1343.7,110.7 1025,1390.4 1016.8,1388.4 		"/>
		<polyline class="st196" points="1341,110 1349.1,112 1030.4,1391.7 1022.2,1389.7 		"/>
		<polyline class="st197" points="1346.4,111.4 1354.6,113.4 1035.8,1393.1 1027.7,1391.1 		"/>
		<polyline class="st198" points="1351.8,112.7 1360,114.7 1041.3,1394.4 1033.1,1392.4 		"/>
		<polyline class="st199" points="1357.3,114.1 1365.4,116.1 1046.7,1395.8 1038.6,1393.8 		"/>
		<polyline class="st200" points="1362.7,115.4 1370.9,117.4 1052.1,1397.2 1044,1395.1 		"/>
		<polyline class="st201" points="1368.2,116.8 1376.3,118.8 1057.6,1398.5 1049.4,1396.5 		"/>
		<polyline class="st202" points="1373.6,118.1 1381.7,120.1 1063,1399.8 1054.9,1397.8 		"/>
		<polyline class="st203" points="1379,119.4 1387.2,121.5 1068.5,1401.2 1060.3,1399.2 		"/>
		<polyline class="st204" points="1384.5,120.8 1392.6,122.8 1073.9,1402.6 1065.8,1400.5 		"/>
		<polyline class="st205" points="1389.9,122.2 1398.1,124.2 1079.3,1403.9 1071.2,1401.9 		"/>
		<polyline class="st206" points="1395.3,123.5 1403.5,125.5 1084.8,1405.2 1076.6,1403.2 		"/>
		<polyline class="st207" points="1400.8,124.8 1408.9,126.9 1090.2,1406.6 1082,1404.6 		"/>
		<polyline class="st208" points="1406.2,126.2 1414.4,128.2 1095.7,1407.9 1087.5,1405.9 		"/>
		<polyline class="st209" points="1411.6,127.6 1419.8,129.6 1101.1,1409.3 1092.9,1407.3 		"/>
		<polyline class="st210" points="1417.1,128.9 1425.2,130.9 1106.5,1410.6 1098.4,1408.6 		"/>
		<polyline class="st211" points="1422.5,130.2 1430.7,132.3 1111.9,1412 1103.8,1410 		"/>
		<polyline class="st212" points="1428,131.6 1436.1,133.6 1117.4,1413.3 1109.2,1411.3 		"/>
		<polyline class="st213" points="1433.4,132.9 1441.5,135 1122.8,1414.7 1114.7,1412.7 		"/>
		<polyline class="st214" points="1438.8,134.3 1447,136.3 1128.3,1416 1120.1,1414 		"/>
		<polyline class="st215" points="1444.3,135.6 1452.4,137.7 1133.7,1417.4 1125.6,1415.4 		"/>
		<polyline class="st216" points="1449.7,137 1457.9,139 1139.1,1418.7 1131,1416.7 		"/>
		<polyline class="st217" points="1455.1,138.3 1463.3,140.4 1144.6,1420.1 1136.4,1418 		"/>
		<polyline class="st218" points="1460.6,139.7 1468.7,141.7 1150,1421.4 1141.8,1419.4 		"/>
		<polyline class="st219" points="1466,141 1474.2,143.1 1155.5,1422.8 1147.3,1420.8 		"/>
		<polyline class="st220" points="1471.5,142.4 1479.6,144.4 1160.9,1424.1 1152.7,1422.1 		"/>
		<polyline class="st221" points="1476.9,143.7 1485,145.8 1166.3,1425.5 1158.2,1423.4 		"/>
		<polyline class="st222" points="1482.3,145.1 1490.5,147.1 1171.8,1426.8 1163.6,1424.8 		"/>
		<polyline class="st223" points="1487.8,146.4 1495.9,148.5 1177.2,1428.2 1169,1426.2 		"/>
		<polyline class="st224" points="1493.2,147.8 1501.4,149.8 1182.6,1429.5 1174.5,1427.5 		"/>
		<polyline class="st225" points="1498.6,149.1 1506.8,151.2 1188.1,1430.9 1179.9,1428.8 		"/>
		<polyline class="st226" points="1504.1,150.5 1512.2,152.5 1193.5,1432.2 1185.4,1430.2 		"/>
		<polyline class="st227" points="1509.5,151.8 1517.7,153.9 1199,1433.6 1190.8,1431.5 		"/>
		<polyline class="st228" points="1514.9,153.2 1523.1,155.2 1204.4,1434.9 1196.2,1432.9 		"/>
		<polyline class="st229" points="1520.4,154.5 1528.5,156.5 1209.8,1436.3 1201.7,1434.3 		"/>
		<polyline class="st230" points="1525.8,155.9 1534,157.9 1215.3,1437.6 1207.1,1435.6 		"/>
		<polyline class="st231" points="1531.3,157.2 1539.4,159.3 1220.7,1439 1212.5,1436.9 		"/>
		<polyline class="st232" points="1536.7,158.6 1544.8,160.6 1226.1,1440.3 1218,1438.3 		"/>
		<polyline class="st233" points="1542.1,159.9 1550.3,161.9 1231.6,1441.7 1223.4,1439.7 		"/>
		<polyline class="st234" points="1547.6,161.3 1555.7,163.3 1237,1443 1228.9,1441 		"/>
		<polyline class="st235" points="1553,162.6 1561.2,164.7 1242.4,1444.4 1234.3,1442.3 		"/>
		<polyline class="st236" points="1558.4,164 1566.6,166 1247.9,1445.7 1239.7,1443.7 		"/>
		<polyline class="st237" points="1563.9,165.3 1568,166.4 1249.3,1446.1 1245.2,1445 		"/>
	</g>
</g>
</svg>
